<?xml version="1.0" encoding="UTF-8" standalone="no"?>
<!-- Created with Inkscape (http://www.inkscape.org/) -->

<svg
   xmlns:dc="http://purl.org/dc/elements/1.1/"
   xmlns:cc="http://creativecommons.org/ns#"
   xmlns:rdf="http://www.w3.org/1999/02/22-rdf-syntax-ns#"
   xmlns:svg="http://www.w3.org/2000/svg"
   xmlns="http://www.w3.org/2000/svg"
   xmlns:sodipodi="http://sodipodi.sourceforge.net/DTD/sodipodi-0.dtd"
   xmlns:inkscape="http://www.inkscape.org/namespaces/inkscape"
   width="210mm"
   height="297mm"
   viewBox="0 0 210 297"
   version="1.1"
   id="svg8"
   sodipodi:docname="171130-IDELayout-final.svg"
   inkscape:version="0.92.2 (5c3e80d, 2017-08-06)">
  <defs
     id="defs2" />
  <sodipodi:namedview
     id="base"
     pagecolor="#ffffff"
     bordercolor="#666666"
     borderopacity="1.0"
     inkscape:pageopacity="0.0"
     inkscape:pageshadow="2"
     inkscape:zoom="0.014142136"
     inkscape:cx="38056.431"
     inkscape:cy="-4654.6141"
     inkscape:document-units="mm"
     inkscape:current-layer="layer2"
     showgrid="false"
     inkscape:pagecheckerboard="false"
     showborder="false"
     inkscape:snap-bbox="true"
     inkscape:bbox-paths="true"
     inkscape:bbox-nodes="true"
     inkscape:snap-bbox-edge-midpoints="true"
     inkscape:snap-bbox-midpoints="true"
     inkscape:object-paths="true"
     inkscape:snap-intersection-paths="true"
     inkscape:snap-smooth-nodes="true"
     inkscape:snap-midpoints="true"
     inkscape:snap-others="true"
     inkscape:snap-object-midpoints="true"
     inkscape:snap-center="true"
     inkscape:snap-text-baseline="true"
     inkscape:snap-page="true"
     inkscape:window-width="1920"
     inkscape:window-height="1017"
     inkscape:window-x="1912"
     inkscape:window-y="-8"
     inkscape:window-maximized="1" />
  <metadata
     id="metadata5">
    <rdf:RDF>
      <cc:Work
         rdf:about="">
        <dc:format>image/svg+xml</dc:format>
        <dc:type
           rdf:resource="http://purl.org/dc/dcmitype/StillImage" />
        <dc:title></dc:title>
      </cc:Work>
    </rdf:RDF>
  </metadata>
  <g
     inkscape:groupmode="layer"
     id="layer2"
     inkscape:label="union"
     style="display:inline">
    <path
       style="display:inline;fill:#ffffff;fill-opacity:1;stroke:#000000;stroke-width:5.66929141;stroke-miterlimit:4;stroke-dasharray:none;stroke-dashoffset:0;stroke-opacity:1"
       d="M 0.9453125 -22497.07 L 0.9453125 -18719.055 L 945.82617 -18719.055 L 945.82617 -7380.4727 L 945.82617 -7255.2129 L 945.82617 -5492.5977 L 8504.8828 -5492.5977 L 8504.8828 1121.5742 L 12282.521 1121.5742 L 12282.521 800.31445 L 23619.213 800.31445 L 23619.213 518.74023 L 12282.521 518.74023 L 12282.521 195.58984 L 23619.213 195.58984 L 23619.213 -85.984375 L 12282.521 -85.984375 L 12282.521 -409.13281 L 23619.213 -409.13281 L 23619.213 -690.70703 L 12282.521 -690.70703 L 12282.521 -1013.8613 L 23619.213 -1013.8613 L 23619.213 -1295.4355 L 12282.521 -1295.4355 L 12282.521 -1618.584 L 23619.213 -1618.584 L 23619.213 -1900.1582 L 12282.521 -1900.1582 L 12282.521 -2223.3086 L 23619.213 -2223.3086 L 23619.213 -2504.8848 L 12282.521 -2504.8848 L 12282.521 -2828.0312 L 23619.213 -2828.0312 L 23619.213 -3109.6074 L 12282.521 -3109.6074 L 12282.521 -3432.7559 L 23619.213 -3432.7559 L 23619.213 -3714.332 L 12282.521 -3714.332 L 12282.521 -4037.4785 L 23619.213 -4037.4785 L 23619.213 -4319.0547 L 12282.521 -4319.0547 L 12282.521 -4642.2051 L 23619.213 -4642.2051 L 23619.213 -4923.7793 L 12282.521 -4923.7793 L 12282.521 -5246.9297 L 23619.213 -5246.9297 L 23619.213 -5528.5039 L 12282.521 -5528.5039 L 12282.521 -5851.6562 L 23619.213 -5851.6562 L 23619.213 -6133.2305 L 12282.521 -6133.2305 L 12282.521 -6456.3789 L 23619.213 -6456.3789 L 23619.213 -6737.9531 L 12282.521 -6737.9531 L 12282.521 -7061.1035 L 23619.213 -7061.1035 L 23619.213 -7342.6797 L 12282.521 -7342.6797 L 12282.521 -7665.8262 L 23619.213 -7665.8262 L 23619.213 -7947.4023 L 12282.521 -7947.4023 L 12282.521 -8270.5527 L 23619.213 -8270.5527 L 23619.213 -8552.127 L 12282.521 -8552.127 L 12282.521 -8875.2754 L 23619.213 -8875.2754 L 23619.213 -9156.8496 L 12282.521 -9156.8496 L 12282.521 -9480 L 23619.213 -9480 L 23619.213 -9761.5762 L 12282.521 -9761.5762 L 12282.521 -10084.725 L 23619.213 -10084.725 L 23619.213 -10366.299 L 12282.521 -10366.299 L 12282.521 -10689.449 L 23619.213 -10689.449 L 23619.213 -10971.025 L 12282.521 -10971.025 L 12282.521 -11294.172 L 23619.213 -11294.172 L 23619.213 -11575.748 L 12282.521 -11575.748 L 12282.521 -11898.898 L 23619.213 -11898.898 L 23619.213 -12180.473 L 12282.521 -12180.473 L 12282.521 -12503.621 L 23619.213 -12503.621 L 23619.213 -12785.197 L 12282.521 -12785.197 L 12282.521 -13108.348 L 23619.213 -13108.348 L 23619.213 -13389.922 L 12282.521 -13389.922 L 12282.521 -13713.07 L 23619.213 -13713.07 L 23619.213 -13994.646 L 12282.521 -13994.646 L 8504.8828 -13994.646 L 8504.8828 -7380.4727 L 2833.7012 -7380.4727 L 2833.7012 -18719.055 L 3778.582 -18719.055 L 3778.582 -22497.07 L 0.9453125 -22497.07 z "
       id="rect815-4"
       transform="scale(0.26458333)" />
    <path
       inkscape:connector-curvature="0"
       style="display:inline;fill:#ffffff;fill-opacity:1;stroke:#000000;stroke-width:1.5;stroke-miterlimit:4;stroke-dasharray:none;stroke-dashoffset:0;stroke-opacity:1"
       d="m 9503.7501,2540.85 v -999.5998 h -249.9997 v -2999.9999 -33.1417 -466.3585 H 7253.7499 v -1749.9997 h -999.5 v 85.0001 H 3254.75 v 74.4996 h 2999.4999 v 85.5002 H 3254.75 v 74.4998 h 2999.4999 v 85.4999 H 3254.75 v 74.4998 h 2999.4999 v 85.5011 H 3254.75 v 74.5001 h 2999.4999 v 85.4995 H 3254.75 v 74.4998 h 2999.4999 v 85.5003 H 3254.75 v 74.5004 h 2999.4999 v 85.4991 H 3254.75 v 74.5005 h 2999.4999 v 85.4996 H 3254.75 v 74.5003 h 2999.4999 v 85.4994 H 3254.75 v 74.5003 h 2999.4999 v 85.5001 H 3254.75 v 74.4998 h 2999.4999 v 85.5003 H 3254.75 v 74.4998 h 2999.4999 v 85.5006 H 3254.75 v 74.5001 h 2999.4999 v 85.4996 H 3254.75 v 74.4998 h 2999.4999 v 85.5003 H 3254.75 v 74.5003 h 2999.4999 v 85.4991 H 3254.75 v 74.5003 h 2999.4999 v 85.5004 H 3254.75 v 74.4998 h 2999.4999 v 85.4998 H 3254.75 v 74.49982 h 2999.4999 v 85.5001 H 3254.75 v 74.5003 h 2999.4999 v 85.4999 H 3254.75 v 74.4997 h 2999.4999 v 85.5001 H 3254.75 v 74.5004 h 2999.4999 v 85.4993 H 3254.75 v 74.5003 h 2999.4999 v 85.5001 H 3254.75 v 74.5 h 2999.4999 v 85.4996 H 3254.75 v 74.500403 h 2999.4999 v 85.5003 H 3254.75 v 74.499797 h 2999.4999 v 85.4996 H 3254.75 v 74.5003 h 2999.4999 999.5 V -1458.7497 H 8754.2501 V 1541.2502 H 8504.2504 V 2540.85 Z"
       id="rect815-4-8" />
  </g>
</svg>
