<?xml version="1.0" encoding="UTF-8" standalone="no"?>
<svg
   xmlns:dc="http://purl.org/dc/elements/1.1/"
   xmlns:cc="http://creativecommons.org/ns#"
   xmlns:rdf="http://www.w3.org/1999/02/22-rdf-syntax-ns#"
   xmlns:svg="http://www.w3.org/2000/svg"
   xmlns="http://www.w3.org/2000/svg"
   viewBox="0 0 85.925003 85.925003"
   height="85.925003"
   width="85.925003"
   xml:space="preserve"
   version="1.1"
   id="svg2"><metadata
     id="metadata8"><rdf:RDF><cc:Work
         rdf:about=""><dc:format>image/svg+xml</dc:format><dc:type
           rdf:resource="http://purl.org/dc/dcmitype/StillImage" /></cc:Work></rdf:RDF></metadata><defs
     id="defs6" /><g
     transform="matrix(1.25,0,0,-1.25,0,85.925)"
     id="g10"><g
       id="g12"><g
         id="g14"><g
           id="g16"><path
             id="path18"
             style="fill:none;stroke:#000000;stroke-width:0.80000001;stroke-linecap:butt;stroke-linejoin:miter;stroke-miterlimit:10;stroke-dasharray:none;stroke-opacity:1"
             d="m 0,0 0,68.74066 68.74066,0 L 68.74066,0 0,0 Z" /><path
             id="path20"
             style="fill:none;stroke:#000000;stroke-width:0.80000001;stroke-linecap:butt;stroke-linejoin:miter;stroke-miterlimit:10;stroke-dasharray:none;stroke-opacity:1"
             d="m 29.19711,36.69485 7.65355,0 0,0.08505 -7.65355,0 0,-0.08505 z" /><path
             id="path22"
             style="fill:none;stroke:#000000;stroke-width:0.80000001;stroke-linecap:butt;stroke-linejoin:miter;stroke-miterlimit:10;stroke-dasharray:none;stroke-opacity:1"
             d="m 26.07895,36.41138 10.77171,0 0,0.08503 -10.77171,0 0,-0.08503 z" /><path
             id="path24"
             style="fill:none;stroke:#000000;stroke-width:0.80000001;stroke-linecap:butt;stroke-linejoin:miter;stroke-miterlimit:10;stroke-dasharray:none;stroke-opacity:1"
             d="m 22.9608,36.12788 13.88986,0 0,0.08506 -13.88986,0 0,-0.08506 z" /><path
             id="path26"
             style="fill:none;stroke:#000000;stroke-width:0.80000001;stroke-linecap:butt;stroke-linejoin:miter;stroke-miterlimit:10;stroke-dasharray:none;stroke-opacity:1"
             d="m 19.84267,35.8444 17.00799,0 0,0.08504 -17.00799,0 0,-0.08504 z" /><path
             id="path28"
             style="fill:none;stroke:#000000;stroke-width:0.80000001;stroke-linecap:butt;stroke-linejoin:miter;stroke-miterlimit:10;stroke-dasharray:none;stroke-opacity:1"
             d="m 32.31526,35.56093 4.5354,0 0,0.08502 -4.5354,0 0,-0.08502 z" /><path
             id="path30"
             style="fill:none;stroke:#000000;stroke-width:0.80000001;stroke-linecap:butt;stroke-linejoin:miter;stroke-miterlimit:10;stroke-dasharray:none;stroke-opacity:1"
             d="m 0,60.46361 30.04753,0 0,-23.81127 -0.85042,0 0,22.02542 -29.19711,0 0,1.78585 z" /><path
             id="path32"
             style="fill:none;stroke:#000000;stroke-width:0.80000001;stroke-linecap:butt;stroke-linejoin:miter;stroke-miterlimit:10;stroke-dasharray:none;stroke-opacity:1"
             d="m 0,53.26355 26.92937,0 0,-16.8947 -0.85042,0 0,15.10883 -26.07895,0 0,1.78587 z" /><path
             id="path34"
             style="fill:none;stroke:#000000;stroke-width:0.80000001;stroke-linecap:butt;stroke-linejoin:miter;stroke-miterlimit:10;stroke-dasharray:none;stroke-opacity:1"
             d="m 0,46.06346 23.81122,0 0,-9.97809 -0.85042,0 0,8.19223 -22.9608,0 0,1.78586 z" /><path
             id="path36"
             style="fill:none;stroke:#000000;stroke-width:0.80000001;stroke-linecap:butt;stroke-linejoin:miter;stroke-miterlimit:10;stroke-dasharray:none;stroke-opacity:1"
             d="m 0,33.47748 20.69307,0 0,2.49449 -0.8504,0 0,-0.70863 -19.84267,0 0,-1.78586 z" /><path
             id="path38"
             style="fill:none;stroke:#000000;stroke-width:0.80000001;stroke-linecap:butt;stroke-linejoin:miter;stroke-miterlimit:10;stroke-dasharray:none;stroke-opacity:1"
             d="m 0,4.67717 3.31654,0 0,1.78586 -3.31654,0 0,-1.78586 z" /><path
             id="path40"
             style="fill:none;stroke:#000000;stroke-width:0.80000001;stroke-linecap:butt;stroke-linejoin:miter;stroke-miterlimit:10;stroke-dasharray:none;stroke-opacity:1"
             d="m 6.46303,0 0,4.67717 26.70265,0 0,31.01131 -0.85042,0 0,-29.22545 -27.63809,0 0,-6.46303 1.78586,0 z" /><path
             id="path42"
             style="fill:none;stroke:#000000;stroke-width:0.80000001;stroke-linecap:butt;stroke-linejoin:miter;stroke-miterlimit:10;stroke-dasharray:none;stroke-opacity:1"
             d="m 6.46303,65.87784 0,2.863 -1.78586,0 0,-2.863 1.78586,0 z" /></g></g></g></g></svg>