<?xml version="1.0" ?>
<svg baseProfile="full" height="578px" version="1.1" viewBox="-733.87181325 26849.1325867 6205.3586265 5967.7418265" width="600px" xmlns="http://www.w3.org/2000/svg" xmlns:ev="http://www.w3.org/2001/xml-events" xmlns:xlink="http://www.w3.org/1999/xlink">
	<defs/>
	<path d="M -214.60575,27348.59725 L 4952.22075,27348.59725 L 4952.22075,32317.40975 L -214.60575,32317.40975 L -214.60575,27348.59725" fill="none" stroke="#000000" stroke-width="5.1668265"/>
	<path d="M 1056.558,29024.845 L 1281.058,29024.845 L 1281.058,29099.345 L 1056.558,29099.345 L 1056.558,29024.845" fill="none" stroke="#000000" stroke-width="5.1668265"/>
	<path d="M 1356.558,29024.845 L 1581.058,29024.845 L 1581.058,29099.345 L 1356.558,29099.345 L 1356.558,29024.845" fill="none" stroke="#000000" stroke-width="5.1668265"/>
	<path d="M 1656.557,29024.845 L 1881.058,29024.845 L 1881.058,29099.345 L 1656.557,29099.345 L 1656.557,29024.845" fill="none" stroke="#000000" stroke-width="5.1668265"/>
	<path d="M 2106.557,29024.845 L 2181.058,29024.845 L 2181.058,32082.554 L 2106.557,32082.554 L 2106.557,29024.845" fill="none" stroke="#000000" stroke-width="5.1668265"/>
	<path d="M 2256.558,29024.845 L 2481.058,29024.845 L 2481.058,29099.345 L 2256.558,29099.345 L 2256.558,29024.845" fill="none" stroke="#000000" stroke-width="5.1668265"/>
	<path d="M 2706.557,29024.845 L 2781.058,29024.845 L 2781.058,32082.554 L 2706.557,32082.554 L 2706.557,29024.845" fill="none" stroke="#000000" stroke-width="5.1668265"/>
	<path d="M 2856.558,29024.845 L 3081.058,29024.845 L 3081.058,29099.345 L 2856.558,29099.345 L 2856.558,29024.845" fill="none" stroke="#000000" stroke-width="5.1668265"/>
	<path d="M 3156.557,29024.845 L 3381.057,29024.845 L 3381.057,29099.345 L 3156.557,29099.345 L 3156.557,29024.845" fill="none" stroke="#000000" stroke-width="5.1668265"/>
	<path d="M 3456.558,29024.845 L 3681.058,29024.845 L 3681.058,29099.345 L 3456.558,29099.345 L 3456.558,29024.845" fill="none" stroke="#000000" stroke-width="5.1668265"/>
	<path d="M 1206.558,32008.053 L 1431.058,32008.053 L 1431.058,32082.553 L 1206.558,32082.553 L 1206.558,32008.053" fill="none" stroke="#000000" stroke-width="5.1668265"/>
	<path d="M 1506.558,32008.054 L 1731.058,32008.054 L 1731.058,32082.554 L 1506.558,32082.554 L 1506.558,32008.054" fill="none" stroke="#000000" stroke-width="5.1668265"/>
	<path d="M 1806.558,32008.054 L 2031.058,32008.054 L 2031.058,32082.554 L 1806.558,32082.554 L 1806.558,32008.054" fill="none" stroke="#000000" stroke-width="5.1668265"/>
	<path d="M 2406.558,32008.054 L 2631.058,32008.054 L 2631.058,32082.554 L 2406.558,32082.554 L 2406.558,32008.054" fill="none" stroke="#000000" stroke-width="5.1668265"/>
	<path d="M 3006.558,32008.054 L 3231.058,32008.054 L 3231.058,32082.554 L 3006.558,32082.554 L 3006.558,32008.054" fill="none" stroke="#000000" stroke-width="5.1668265"/>
	<path d="M 3306.558,32008.054 L 3531.058,32008.054 L 3531.058,32082.554 L 3306.558,32082.554 L 3306.558,32008.054" fill="none" stroke="#000000" stroke-width="5.1668265"/>
	<path d="M 270.25,32082.553 L 1131.058,32082.553 L 1131.058,31583.053 L 769.75,31583.053 L 769.75,28583.053 L 1019.75,28583.053 L 1019.75,27583.453 L 20.25,27583.453 L 20.25,28583.053 L 270.25,28583.053 L 270.25,32082.553" fill="none" stroke="#000000" stroke-width="5.1668265"/>
	<path d="M 3606.557,32082.553 L 4467.365,32082.553 L 4467.365,28583.053 L 4717.365,28583.053 L 4717.365,27583.453 L 3717.865,27583.453 L 3717.865,28583.053 L 3967.865,28583.053 L 3967.865,31583.054 L 3606.557,31583.054 L 3606.557,32082.553" fill="none" stroke="#000000" stroke-width="5.1668265"/>
	<path d="M 1956.558,29024.845 L 2158.7077,29024.845 L 2158.7077,29099.345 L 1956.558,29099.345 L 1956.558,29024.845" fill="none" stroke="#000000" stroke-width="5.1668265"/>
	<path d="M 2128.9073,32008.054 L 2331.057,32008.054 L 2331.057,32082.554 L 2128.9073,32082.554 L 2128.9073,32008.054" fill="none" stroke="#000000" stroke-width="5.1668265"/>
	<path d="M 2556.557,29024.845 L 2758.7077,29024.845 L 2758.7077,29099.345 L 2556.557,29099.345 L 2556.557,29024.845" fill="none" stroke="#000000" stroke-width="5.1668265"/>
	<path d="M 2728.9073,32008.054 L 2931.057,32008.054 L 2931.057,32082.554 L 2728.9073,32082.554 L 2728.9073,32008.054" fill="none" stroke="#000000" stroke-width="5.1668265"/>
	<path d="M 1206.558,29047.195 L 1281.058,29047.195 L 1281.058,32060.203 L 1206.558,32060.203 L 1206.558,29047.195" fill="none" stroke="#000000" stroke-width="5.1668265"/>
	<path d="M 1356.558,29047.195 L 1431.058,29047.195 L 1431.058,32060.203 L 1356.558,32060.203 L 1356.558,29047.195" fill="none" stroke="#000000" stroke-width="5.1668265"/>
	<path d="M 1506.558,29047.195 L 1581.058,29047.195 L 1581.058,32060.204 L 1506.558,32060.204 L 1506.558,29047.195" fill="none" stroke="#000000" stroke-width="5.1668265"/>
	<path d="M 1656.558,29047.195 L 1731.058,29047.195 L 1731.058,32060.204 L 1656.558,32060.204 L 1656.558,29047.195" fill="none" stroke="#000000" stroke-width="5.1668265"/>
	<path d="M 1806.558,29047.195 L 1881.058,29047.195 L 1881.058,32060.204 L 1806.558,32060.204 L 1806.558,29047.195" fill="none" stroke="#000000" stroke-width="5.1668265"/>
	<path d="M 2406.558,29047.195 L 2481.058,29047.195 L 2481.058,32060.204 L 2406.558,32060.204 L 2406.558,29047.195" fill="none" stroke="#000000" stroke-width="5.1668265"/>
	<path d="M 3006.558,29047.195 L 3081.058,29047.195 L 3081.058,32060.204 L 3006.558,32060.204 L 3006.558,29047.195" fill="none" stroke="#000000" stroke-width="5.1668265"/>
	<path d="M 3156.558,29047.195 L 3231.058,29047.195 L 3231.058,32060.204 L 3156.558,32060.204 L 3156.558,29047.195" fill="none" stroke="#000000" stroke-width="5.1668265"/>
	<path d="M 3306.558,29047.195 L 3381.057,29047.195 L 3381.057,32060.204 L 3306.558,32060.204 L 3306.558,29047.195" fill="none" stroke="#000000" stroke-width="5.1668265"/>
	<path d="M 3456.558,29047.195 L 3531.058,29047.195 L 3531.058,32060.204 L 3456.558,32060.204 L 3456.558,29047.195" fill="none" stroke="#000000" stroke-width="5.1668265"/>
	<path d="M 1056.558,29047.195 L 1131.058,29047.195 L 1131.058,31932.703 L 1056.558,31932.703 L 1056.558,29047.195" fill="none" stroke="#000000" stroke-width="5.1668265"/>
	<path d="M 3606.558,29047.195 L 3681.058,29047.195 L 3681.058,31932.7033 L 3606.558,31932.7033 L 3606.558,29047.195" fill="none" stroke="#000000" stroke-width="5.1668265"/>
	<path d="M 1956.558,29047.195 L 2031.058,29047.195 L 2031.058,32060.204 L 1956.558,32060.204 L 1956.558,29047.195" fill="none" stroke="#000000" stroke-width="5.1668265"/>
	<path d="M 2256.558,29047.195 L 2331.057,29047.195 L 2331.057,32060.204 L 2256.558,32060.204 L 2256.558,29047.195" fill="none" stroke="#000000" stroke-width="5.1668265"/>
	<path d="M 2556.558,29047.195 L 2631.058,29047.195 L 2631.058,32060.204 L 2556.558,32060.204 L 2556.558,29047.195" fill="none" stroke="#000000" stroke-width="5.1668265"/>
	<path d="M 2856.558,29047.195 L 2931.057,29047.195 L 2931.057,32060.204 L 2856.558,32060.204 L 2856.558,29047.195" fill="none" stroke="#000000" stroke-width="5.1668265"/>
</svg>
