<?xml version="1.0" encoding="UTF-8" standalone="no"?>
<svg
   xmlns:dc="http://purl.org/dc/elements/1.1/"
   xmlns:cc="http://creativecommons.org/ns#"
   xmlns:rdf="http://www.w3.org/1999/02/22-rdf-syntax-ns#"
   xmlns:svg="http://www.w3.org/2000/svg"
   xmlns="http://www.w3.org/2000/svg"
   viewBox="0 0 85.925003 85.925003"
   height="85.925003"
   width="85.925003"
   xml:space="preserve"
   version="1.1"
   id="svg2"><metadata
     id="metadata8"><rdf:RDF><cc:Work
         rdf:about=""><dc:format>image/svg+xml</dc:format><dc:type
           rdf:resource="http://purl.org/dc/dcmitype/StillImage" /></cc:Work></rdf:RDF></metadata><defs
     id="defs6" /><g
     transform="matrix(1.25,0,0,-1.25,0,85.925)"
     id="g10"><g
       id="g12"><g
         id="g14"><g
           id="g16"><path
             id="path18"
             style="fill:none;stroke:#000000;stroke-width:0.80000001;stroke-linecap:butt;stroke-linejoin:miter;stroke-miterlimit:10;stroke-dasharray:none;stroke-opacity:1"
             d="m 0,0 0,68.74066 68.74066,0 L 68.74066,0 0,0 Z" /><path
             id="path20"
             style="fill:none;stroke:#000000;stroke-width:0.80000001;stroke-linecap:butt;stroke-linejoin:miter;stroke-miterlimit:10;stroke-dasharray:none;stroke-opacity:1"
             d="m 32.31526,36.69485 3.96843,0 0,0.08505 -3.96843,0 0,-0.08505 z" /><path
             id="path22"
             style="fill:none;stroke:#000000;stroke-width:0.80000001;stroke-linecap:butt;stroke-linejoin:miter;stroke-miterlimit:10;stroke-dasharray:none;stroke-opacity:1"
             d="m 19.84267,36.41138 16.44102,0 0,0.08503 -16.44102,0 0,-0.08503 z" /><path
             id="path24"
             style="fill:none;stroke:#000000;stroke-width:0.80000001;stroke-linecap:butt;stroke-linejoin:miter;stroke-miterlimit:10;stroke-dasharray:none;stroke-opacity:1"
             d="m 22.9608,36.12788 13.32289,0 0,0.08506 -13.32289,0 0,-0.08506 z" /><path
             id="path26"
             style="fill:none;stroke:#000000;stroke-width:0.80000001;stroke-linecap:butt;stroke-linejoin:miter;stroke-miterlimit:10;stroke-dasharray:none;stroke-opacity:1"
             d="m 26.07895,35.8444 10.20474,0 0,0.08504 -10.20474,0 0,-0.08504 z" /><path
             id="path28"
             style="fill:none;stroke:#000000;stroke-width:0.80000001;stroke-linecap:butt;stroke-linejoin:miter;stroke-miterlimit:10;stroke-dasharray:none;stroke-opacity:1"
             d="m 29.19711,35.56093 7.08658,0 0,0.08502 -7.08658,0 0,-0.08502 z" /><path
             id="path30"
             style="fill:none;stroke:#000000;stroke-width:0.80000001;stroke-linecap:butt;stroke-linejoin:miter;stroke-miterlimit:10;stroke-dasharray:none;stroke-opacity:1"
             d="m 0,38.86337 20.69307,0 0,-2.49452 -0.8504,0 0,0.70868 -19.84267,0 0,1.78584 z" /><path
             id="path32"
             style="fill:none;stroke:#000000;stroke-width:0.80000001;stroke-linecap:butt;stroke-linejoin:miter;stroke-miterlimit:10;stroke-dasharray:none;stroke-opacity:1"
             d="m 0,26.2774 23.81122,0 0,9.97805 -0.85042,0 0,-8.1922 -22.9608,0 0,-1.78585 z" /><path
             id="path34"
             style="fill:none;stroke:#000000;stroke-width:0.80000001;stroke-linecap:butt;stroke-linejoin:miter;stroke-miterlimit:10;stroke-dasharray:none;stroke-opacity:1"
             d="m 0,19.07732 26.92937,0 0,16.89465 -0.85042,0 0,-15.10878 -26.07895,0 0,-1.78587 z" /><path
             id="path36"
             style="fill:none;stroke:#000000;stroke-width:0.80000001;stroke-linecap:butt;stroke-linejoin:miter;stroke-miterlimit:10;stroke-dasharray:none;stroke-opacity:1"
             d="m 0,11.87726 30.04753,0 0,23.81122 -0.85042,0 0,-22.02538 -29.19711,0 0,-1.78584 z" /><path
             id="path38"
             style="fill:none;stroke:#000000;stroke-width:0.80000001;stroke-linecap:butt;stroke-linejoin:miter;stroke-miterlimit:10;stroke-dasharray:none;stroke-opacity:1"
             d="m 10.06306,68.74084 0,-1.07714 23.10262,0 0,0 0,-31.01136 -0.85042,0 0,29.2255 -24.03806,0 0,2.863 1.78586,0 z" /></g></g></g></g></svg>