<?xml version="1.0" ?>
<svg baseProfile="full" height="600px" version="1.1" viewBox="13.0915295 13.0915295 82.557941 82.557941" width="600px" xmlns="http://www.w3.org/2000/svg" xmlns:ev="http://www.w3.org/2001/xml-events" xmlns:xlink="http://www.w3.org/1999/xlink">
	<defs/>
	<path d="M 20.0,20.0 L 20.0,88.741 L 88.741,88.741 L 88.741,20.0 L 20.0,20.0" fill="none" stroke="#000000" stroke-width="0.068741"/>
	<path d="M 49.197,56.695 L 56.851,56.695 L 56.851,56.78 L 49.197,56.78 L 49.197,56.695" fill="none" stroke="#000000" stroke-width="0.068741"/>
	<path d="M 46.079,56.411 L 56.851,56.411 L 56.851,56.496 L 46.079,56.496 L 46.079,56.411" fill="none" stroke="#000000" stroke-width="0.068741"/>
	<path d="M 42.961,56.128 L 56.851,56.128 L 56.851,56.213 L 42.961,56.213 L 42.961,56.128" fill="none" stroke="#000000" stroke-width="0.068741"/>
	<path d="M 39.843,55.844 L 56.851,55.844 L 56.851,55.929 L 39.843,55.929 L 39.843,55.844" fill="none" stroke="#000000" stroke-width="0.068741"/>
	<path d="M 52.315,55.561 L 56.851,55.561 L 56.851,55.646 L 52.315,55.646 L 52.315,55.561" fill="none" stroke="#000000" stroke-width="0.068741"/>
	<path d="M 20.0,78.678 L 50.048,78.678 L 50.048,80.464 L 20.0,80.464 L 20.0,78.678" fill="none" stroke="#000000" stroke-width="0.068741"/>
	<path d="M 49.197,56.652 L 50.048,56.652 L 50.048,79.9282 L 49.197,79.9282 L 49.197,56.652" fill="none" stroke="#000000" stroke-width="0.068741"/>
	<path d="M 20.0,71.478 L 46.929,71.478 L 46.929,73.264 L 20.0,73.264 L 20.0,71.478" fill="none" stroke="#000000" stroke-width="0.068741"/>
	<path d="M 46.079,56.369 L 46.929,56.369 L 46.929,72.7282 L 46.079,72.7282 L 46.079,56.369" fill="none" stroke="#000000" stroke-width="0.068741"/>
	<path d="M 20.0,64.278 L 43.811,64.278 L 43.811,66.063 L 20.0,66.063 L 20.0,64.278" fill="none" stroke="#000000" stroke-width="0.068741"/>
	<path d="M 42.961,56.085 L 43.811,56.085 L 43.811,65.5275 L 42.961,65.5275 L 42.961,56.085" fill="none" stroke="#000000" stroke-width="0.068741"/>
	<path d="M 20.0,53.477 L 40.693,53.477 L 40.693,55.263 L 20.0,55.263 L 20.0,53.477" fill="none" stroke="#000000" stroke-width="0.068741"/>
	<path d="M 39.843,54.0128 L 40.693,54.0128 L 40.693,55.972 L 39.843,55.972 L 39.843,54.0128" fill="none" stroke="#000000" stroke-width="0.068741"/>
	<path d="M 20.0,24.677 L 23.317,24.677 L 23.317,26.463 L 20.0,26.463 L 20.0,24.677" fill="none" stroke="#000000" stroke-width="0.068741"/>
	<path d="M 24.677,24.677 L 53.166,24.677 L 53.166,26.463 L 24.677,26.463 L 24.677,24.677" fill="none" stroke="#000000" stroke-width="0.068741"/>
	<path d="M 24.677,20.0 L 26.463,20.0 L 26.463,25.9272 L 24.677,25.9272 L 24.677,20.0" fill="none" stroke="#000000" stroke-width="0.068741"/>
	<path d="M 52.315,25.2128 L 53.166,25.2128 L 53.166,55.688 L 52.315,55.688 L 52.315,25.2128" fill="none" stroke="#000000" stroke-width="0.068741"/>
	<path d="M 24.677,85.878 L 26.463,85.878 L 26.463,88.741 L 24.677,88.741 L 24.677,85.878" fill="none" stroke="#000000" stroke-width="0.068741"/>
</svg>
