<?xml version="1.0" encoding="UTF-8" standalone="no"?>
<svg
   xmlns:dc="http://purl.org/dc/elements/1.1/"
   xmlns:cc="http://creativecommons.org/ns#"
   xmlns:rdf="http://www.w3.org/1999/02/22-rdf-syntax-ns#"
   xmlns:svg="http://www.w3.org/2000/svg"
   xmlns="http://www.w3.org/2000/svg"
   viewBox="0 0 85.925003 85.925003"
   height="85.925003"
   width="85.925003"
   xml:space="preserve"
   version="1.1"
   id="svg2"><metadata
     id="metadata8"><rdf:RDF><cc:Work
         rdf:about=""><dc:format>image/svg+xml</dc:format><dc:type
           rdf:resource="http://purl.org/dc/dcmitype/StillImage" /></cc:Work></rdf:RDF></metadata><defs
     id="defs6" /><g
     transform="matrix(1.25,0,0,-1.25,0,85.925)"
     id="g10"><g
       id="g12"><g
         id="g14"><g
           id="g16"><path
             id="path18"
             style="fill:none;stroke:#000000;stroke-width:0.80000001;stroke-linecap:butt;stroke-linejoin:miter;stroke-miterlimit:10;stroke-dasharray:none;stroke-opacity:1"
             d="m 0,0 0,68.74066 68.74066,0 L 68.74066,0 0,0 Z" /><path
             id="path20"
             style="fill:none;stroke:#000000;stroke-width:0.80000001;stroke-linecap:butt;stroke-linejoin:miter;stroke-miterlimit:10;stroke-dasharray:none;stroke-opacity:1"
             d="m 24.51988,36.55312 12.0473,0 0,0.08503 -12.0473,0 0,-0.08503 z" /><path
             id="path22"
             style="fill:none;stroke:#000000;stroke-width:0.80000001;stroke-linecap:butt;stroke-linejoin:miter;stroke-miterlimit:10;stroke-dasharray:none;stroke-opacity:1"
             d="m 21.40173,36.26964 15.16545,0 0,0.08504 -15.16545,0 0,-0.08504 z" /><path
             id="path24"
             style="fill:none;stroke:#000000;stroke-width:0.80000001;stroke-linecap:butt;stroke-linejoin:miter;stroke-miterlimit:10;stroke-dasharray:none;stroke-opacity:1"
             d="m 27.63805,35.98615 8.92913,0 0,0.08503 -8.92913,0 0,-0.08503 z" /><path
             id="path26"
             style="fill:none;stroke:#000000;stroke-width:0.80000001;stroke-linecap:butt;stroke-linejoin:miter;stroke-miterlimit:10;stroke-dasharray:none;stroke-opacity:1"
             d="m 30.75618,35.70265 5.811,0 0,0.08505 -5.811,0 0,-0.08505 z" /><path
             id="path28"
             style="fill:none;stroke:#000000;stroke-width:0.80000001;stroke-linecap:butt;stroke-linejoin:miter;stroke-miterlimit:10;stroke-dasharray:none;stroke-opacity:1"
             d="m 0,49.6635 25.37029,0 0,-13.1529 -0.85041,0 0,11.36706 -24.51988,0 0,1.78584 z" /><path
             id="path30"
             style="fill:none;stroke:#000000;stroke-width:0.80000001;stroke-linecap:butt;stroke-linejoin:miter;stroke-miterlimit:10;stroke-dasharray:none;stroke-opacity:1"
             d="m 0,42.46342 22.25215,0 0,-6.23631 -0.85042,0 0,4.45046 -21.40173,0 0,1.78585 z" /><path
             id="path32"
             style="fill:none;stroke:#000000;stroke-width:0.80000001;stroke-linecap:butt;stroke-linejoin:miter;stroke-miterlimit:10;stroke-dasharray:none;stroke-opacity:1"
             d="m 0,15.4773 28.48843,0 0,20.63641 -0.85038,0 0,-18.85056 -27.63805,0 0,-1.78585 z" /><path
             id="path34"
             style="fill:none;stroke:#000000;stroke-width:0.80000001;stroke-linecap:butt;stroke-linejoin:miter;stroke-miterlimit:10;stroke-dasharray:none;stroke-opacity:1"
             d="m 0,8.2772 31.6066,0 0,27.55302 -0.85042,0 0,-25.76716 L 0,10.06306 0,8.2772 Z" /></g></g></g></g></svg>