<?xml version="1.0" ?>
<svg baseProfile="full" height="600px" version="1.1" viewBox="3.0915295 3.0915295 82.557941 82.557941" width="600px" xmlns="http://www.w3.org/2000/svg" xmlns:ev="http://www.w3.org/2001/xml-events" xmlns:xlink="http://www.w3.org/1999/xlink">
	<defs/>
	<path d="M 10.0,10.0 L 10.0,78.741 L 78.741,78.741 L 78.741,10.0 L 10.0,10.0" fill="none" stroke="#000000" stroke-width="0.068741"/>
	<path d="M 39.197,46.695 L 46.851,46.695 L 46.851,46.78 L 39.197,46.78 L 39.197,46.695" fill="none" stroke="#000000" stroke-width="0.068741"/>
	<path d="M 36.079,46.411 L 46.851,46.411 L 46.851,46.496 L 36.079,46.496 L 36.079,46.411" fill="none" stroke="#000000" stroke-width="0.068741"/>
	<path d="M 32.961,46.128 L 46.851,46.128 L 46.851,46.213 L 32.961,46.213 L 32.961,46.128" fill="pink" stroke="#000000" stroke-width="0.068741"/>
	<path d="M 29.843,45.844 L 46.851,45.844 L 46.851,45.929 L 29.843,45.929 L 29.843,45.844" fill="none" stroke="#000000" stroke-width="0.068741"/>
	<path d="M 42.315,45.561 L 46.851,45.561 L 46.851,45.646 L 42.315,45.646 L 42.315,45.561" fill="pink" stroke="#000000" stroke-width="0.068741"/>
	<path d="M 10.0,68.678 L 40.048,68.678 L 40.048,70.464 L 10.0,70.464 L 10.0,68.678" fill="none" stroke="#000000" stroke-width="0.068741"/>
	<path d="M 39.197,46.652 L 40.048,46.652 L 40.048,69.9282 L 39.197,69.9282 L 39.197,46.652" fill="none" stroke="#000000" stroke-width="0.068741"/>
	<path d="M 10.0,61.478 L 36.929,61.478 L 36.929,63.264 L 10.0,63.264 L 10.0,61.478" fill="none" stroke="#000000" stroke-width="0.068741"/>
	<path d="M 36.079,46.369 L 36.929,46.369 L 36.929,62.7282 L 36.079,62.7282 L 36.079,46.369" fill="none" stroke="#000000" stroke-width="0.068741"/>
	<path d="M 10.0,54.278 L 33.811,54.278 L 33.811,56.063 L 10.0,56.063 L 10.0,54.278" fill="none" stroke="#000000" stroke-width="0.068741"/>
	<path d="M 32.961,46.085 L 33.811,46.085 L 33.811,55.5275 L 32.961,55.5275 L 32.961,46.085" fill="none" stroke="#000000" stroke-width="0.068741"/>
	<path d="M 10.0,43.477 L 30.693,43.477 L 30.693,45.263 L 10.0,45.263 L 10.0,43.477" fill="none" stroke="#000000" stroke-width="0.068741"/>
	<path d="M 29.843,44.0128 L 30.693,44.0128 L 30.693,45.972 L 29.843,45.972 L 29.843,44.0128" fill="red" stroke="#000000" stroke-width="0.068741"/>
	<path d="M 10.0,14.677 L 13.317,14.677 L 13.317,16.463 L 10.0,16.463 L 10.0,14.677" fill="none" stroke="#000000" stroke-width="0.068741"/>
	<path d="M 14.677,14.677 L 43.166,14.677 L 43.166,16.463 L 14.677,16.463 L 14.677,14.677" fill="none" stroke="#000000" stroke-width="0.068741"/>
	<path d="M 14.677,10.0 L 16.463,10.0 L 16.463,15.9272 L 14.677,15.9272 L 14.677,10.0" fill="none" stroke="#000000" stroke-width="0.068741"/>
	<path d="M 42.315,15.2128 L 43.166,15.2128 L 43.166,45.688 L 42.315,45.688 L 42.315,15.2128" fill="red" stroke="#000000" stroke-width="0.068741"/>
	<path d="M 14.677,75.878 L 16.463,75.878 L 16.463,78.741 L 14.677,78.741 L 14.677,75.878" fill="none" stroke="#000000" stroke-width="0.068741"/>
</svg>
