<?xml version="1.0" ?>
<svg baseProfile="full" height="600px" version="1.1" viewBox="13.0915295 13.0915295 82.557941 82.557941" width="600px" xmlns="http://www.w3.org/2000/svg" xmlns:ev="http://www.w3.org/2001/xml-events" xmlns:xlink="http://www.w3.org/1999/xlink">
	<defs/>
	<path d="M 20.0,20.0 L 20.0,88.741 L 88.741,88.741 L 88.741,20.0 L 20.0,20.0" fill="none" stroke="#000000" stroke-width="0.068741"/>
	<path d="M 44.52,56.553 L 56.567,56.553 L 56.567,56.638 L 44.52,56.638 L 44.52,56.553" fill="none" stroke="#000000" stroke-width="0.068741"/>
	<path d="M 41.402,56.27 L 56.567,56.27 L 56.567,56.355 L 41.402,56.355 L 41.402,56.27" fill="none" stroke="#000000" stroke-width="0.068741"/>
	<path d="M 47.638,55.986 L 56.567,55.986 L 56.567,56.071 L 47.638,56.071 L 47.638,55.986" fill="none" stroke="#000000" stroke-width="0.068741"/>
	<path d="M 50.756,55.703 L 56.567,55.703 L 56.567,55.788 L 50.756,55.788 L 50.756,55.703" fill="none" stroke="#000000" stroke-width="0.068741"/>
	<path d="M 20.0,67.878 L 45.37,67.878 L 45.37,69.663 L 20.0,69.663 L 20.0,67.878" fill="none" stroke="#000000" stroke-width="0.068741"/>
	<path d="M 44.52,56.511 L 45.37,56.511 L 45.37,69.1275 L 44.52,69.1275 L 44.52,56.511" fill="none" stroke="#000000" stroke-width="0.068741"/>
	<path d="M 20.0,60.678 L 42.252,60.678 L 42.252,62.463 L 20.0,62.463 L 20.0,60.678" fill="none" stroke="#000000" stroke-width="0.068741"/>
	<path d="M 41.402,56.227 L 42.252,56.227 L 42.252,61.9275 L 41.402,61.9275 L 41.402,56.227" fill="none" stroke="#000000" stroke-width="0.068741"/>
	<path d="M 20.0,35.477 L 48.488,35.477 L 48.488,37.263 L 20.0,37.263 L 20.0,35.477" fill="none" stroke="#000000" stroke-width="0.068741"/>
	<path d="M 47.638,36.0128 L 48.488,36.0128 L 48.488,56.114 L 47.638,56.114 L 47.638,36.0128" fill="none" stroke="#000000" stroke-width="0.068741"/>
	<path d="M 20.0,28.277 L 51.607,28.277 L 51.607,30.063 L 20.0,30.063 L 20.0,28.277" fill="none" stroke="#000000" stroke-width="0.068741"/>
	<path d="M 50.756,28.8128 L 51.607,28.8128 L 51.607,55.83 L 50.756,55.83 L 50.756,28.8128" fill="none" stroke="#000000" stroke-width="0.068741"/>
</svg>
