<?xml version="1.0" ?>
<svg baseProfile="full" height="578px" version="1.1" viewBox="-743.87181325 10956.2305867 6205.3586265 5967.7418265" width="600px" xmlns="http://www.w3.org/2000/svg" xmlns:ev="http://www.w3.org/2001/xml-events" xmlns:xlink="http://www.w3.org/1999/xlink">
	<defs/>
	<path d="M -224.60575,11455.69525 L 4942.22075,11455.69525 L 4942.22075,16424.50775 L -224.60575,16424.50775 L -224.60575,11455.69525" fill="none" stroke="#000000" stroke-width="5.1668265"/>
	<path d="M 1046.558,13131.943 L 1271.058,13131.943 L 1271.058,13206.443 L 1046.558,13206.443 L 1046.558,13131.943" fill="none" stroke="#000000" stroke-width="5.1668265"/>
	<path d="M 1346.558,13131.943 L 1571.058,13131.943 L 1571.058,13206.443 L 1346.558,13206.443 L 1346.558,13131.943" fill="none" stroke="#000000" stroke-width="5.1668265"/>
	<path d="M 1646.557,13131.943 L 1871.058,13131.943 L 1871.058,13206.443 L 1646.557,13206.443 L 1646.557,13131.943" fill="none" stroke="#000000" stroke-width="5.1668265"/>
	<path d="M 2096.557,13131.943 L 2171.058,13131.943 L 2171.058,16189.652 L 2096.557,16189.652 L 2096.557,13131.943" fill="none" stroke="#000000" stroke-width="5.1668265"/>
	<path d="M 2246.558,13131.943 L 2471.058,13131.943 L 2471.058,13206.443 L 2246.558,13206.443 L 2246.558,13131.943" fill="none" stroke="#000000" stroke-width="5.1668265"/>
	<path d="M 2696.557,13131.943 L 2771.058,13131.943 L 2771.058,16189.652 L 2696.557,16189.652 L 2696.557,13131.943" fill="none" stroke="#000000" stroke-width="5.1668265"/>
	<path d="M 2846.558,13131.943 L 3071.058,13131.943 L 3071.058,13206.443 L 2846.558,13206.443 L 2846.558,13131.943" fill="none" stroke="#000000" stroke-width="5.1668265"/>
	<path d="M 3146.557,13131.943 L 3371.057,13131.943 L 3371.057,13206.443 L 3146.557,13206.443 L 3146.557,13131.943" fill="none" stroke="#000000" stroke-width="5.1668265"/>
	<path d="M 3446.558,13131.943 L 3671.058,13131.943 L 3671.058,13206.443 L 3446.558,13206.443 L 3446.558,13131.943" fill="none" stroke="#000000" stroke-width="5.1668265"/>
	<path d="M 1196.558,16115.151 L 1421.058,16115.151 L 1421.058,16189.651 L 1196.558,16189.651 L 1196.558,16115.151" fill="none" stroke="#000000" stroke-width="5.1668265"/>
	<path d="M 1496.558,16115.152 L 1721.058,16115.152 L 1721.058,16189.652 L 1496.558,16189.652 L 1496.558,16115.152" fill="none" stroke="#000000" stroke-width="5.1668265"/>
	<path d="M 1796.558,16115.152 L 2021.058,16115.152 L 2021.058,16189.652 L 1796.558,16189.652 L 1796.558,16115.152" fill="none" stroke="#000000" stroke-width="5.1668265"/>
	<path d="M 2396.558,16115.152 L 2621.058,16115.152 L 2621.058,16189.652 L 2396.558,16189.652 L 2396.558,16115.152" fill="none" stroke="#000000" stroke-width="5.1668265"/>
	<path d="M 2996.558,16115.152 L 3221.058,16115.152 L 3221.058,16189.652 L 2996.558,16189.652 L 2996.558,16115.152" fill="none" stroke="#000000" stroke-width="5.1668265"/>
	<path d="M 3296.558,16115.152 L 3521.058,16115.152 L 3521.058,16189.652 L 3296.558,16189.652 L 3296.558,16115.152" fill="none" stroke="#000000" stroke-width="5.1668265"/>
	<path d="M 260.25,16189.651 L 1121.058,16189.651 L 1121.058,15690.151 L 759.75,15690.151 L 759.75,12690.151 L 1009.75,12690.151 L 1009.75,11690.551 L 10.25,11690.551 L 10.25,12690.151 L 260.25,12690.151 L 260.25,16189.651" fill="none" stroke="#000000" stroke-width="5.1668265"/>
	<path d="M 3596.557,16189.651 L 4457.365,16189.651 L 4457.365,12690.151 L 4707.365,12690.151 L 4707.365,11690.551 L 3707.865,11690.551 L 3707.865,12690.151 L 3957.865,12690.151 L 3957.865,15690.152 L 3596.557,15690.152 L 3596.557,16189.651" fill="none" stroke="#000000" stroke-width="5.1668265"/>
	<path d="M 1946.558,13131.943 L 2148.7077,13131.943 L 2148.7077,13206.443 L 1946.558,13206.443 L 1946.558,13131.943" fill="none" stroke="#000000" stroke-width="5.1668265"/>
	<path d="M 2118.9073,16115.152 L 2321.057,16115.152 L 2321.057,16189.652 L 2118.9073,16189.652 L 2118.9073,16115.152" fill="none" stroke="#000000" stroke-width="5.1668265"/>
	<path d="M 2546.557,13131.943 L 2748.7077,13131.943 L 2748.7077,13206.443 L 2546.557,13206.443 L 2546.557,13131.943" fill="none" stroke="#000000" stroke-width="5.1668265"/>
	<path d="M 2718.9073,16115.152 L 2921.057,16115.152 L 2921.057,16189.652 L 2718.9073,16189.652 L 2718.9073,16115.152" fill="none" stroke="#000000" stroke-width="5.1668265"/>
	<path d="M 1196.558,13154.293 L 1271.058,13154.293 L 1271.058,16167.301 L 1196.558,16167.301 L 1196.558,13154.293" fill="none" stroke="#000000" stroke-width="5.1668265"/>
	<path d="M 1346.558,13154.293 L 1421.058,13154.293 L 1421.058,16167.301 L 1346.558,16167.301 L 1346.558,13154.293" fill="none" stroke="#000000" stroke-width="5.1668265"/>
	<path d="M 1496.558,13154.293 L 1571.058,13154.293 L 1571.058,16167.302 L 1496.558,16167.302 L 1496.558,13154.293" fill="none" stroke="#000000" stroke-width="5.1668265"/>
	<path d="M 1646.558,13154.293 L 1721.058,13154.293 L 1721.058,16167.302 L 1646.558,16167.302 L 1646.558,13154.293" fill="none" stroke="#000000" stroke-width="5.1668265"/>
	<path d="M 1796.558,13154.293 L 1871.058,13154.293 L 1871.058,16167.302 L 1796.558,16167.302 L 1796.558,13154.293" fill="none" stroke="#000000" stroke-width="5.1668265"/>
	<path d="M 2396.558,13154.293 L 2471.058,13154.293 L 2471.058,16167.302 L 2396.558,16167.302 L 2396.558,13154.293" fill="none" stroke="#000000" stroke-width="5.1668265"/>
	<path d="M 2996.558,13154.293 L 3071.058,13154.293 L 3071.058,16167.302 L 2996.558,16167.302 L 2996.558,13154.293" fill="none" stroke="#000000" stroke-width="5.1668265"/>
	<path d="M 3146.558,13154.293 L 3221.058,13154.293 L 3221.058,16167.302 L 3146.558,16167.302 L 3146.558,13154.293" fill="none" stroke="#000000" stroke-width="5.1668265"/>
	<path d="M 3296.558,13154.293 L 3371.057,13154.293 L 3371.057,16167.302 L 3296.558,16167.302 L 3296.558,13154.293" fill="none" stroke="#000000" stroke-width="5.1668265"/>
	<path d="M 3446.558,13154.293 L 3521.058,13154.293 L 3521.058,16167.302 L 3446.558,16167.302 L 3446.558,13154.293" fill="none" stroke="#000000" stroke-width="5.1668265"/>
	<path d="M 1046.558,13154.293 L 1121.058,13154.293 L 1121.058,16039.801 L 1046.558,16039.801 L 1046.558,13154.293" fill="none" stroke="#000000" stroke-width="5.1668265"/>
	<path d="M 3596.558,13154.293 L 3671.058,13154.293 L 3671.058,16039.8013 L 3596.558,16039.8013 L 3596.558,13154.293" fill="none" stroke="#000000" stroke-width="5.1668265"/>
	<path d="M 1946.558,13154.293 L 2021.058,13154.293 L 2021.058,16167.302 L 1946.558,16167.302 L 1946.558,13154.293" fill="none" stroke="#000000" stroke-width="5.1668265"/>
	<path d="M 2246.558,13154.293 L 2321.057,13154.293 L 2321.057,16167.302 L 2246.558,16167.302 L 2246.558,13154.293" fill="none" stroke="#000000" stroke-width="5.1668265"/>
	<path d="M 2546.558,13154.293 L 2621.058,13154.293 L 2621.058,16167.302 L 2546.558,16167.302 L 2546.558,13154.293" fill="none" stroke="#000000" stroke-width="5.1668265"/>
	<path d="M 2846.558,13154.293 L 2921.057,13154.293 L 2921.057,16167.302 L 2846.558,16167.302 L 2846.558,13154.293" fill="none" stroke="#000000" stroke-width="5.1668265"/>
</svg>
