<?xml version="1.0" encoding="UTF-8" standalone="no"?>
<!-- Created with Inkscape (http://www.inkscape.org/) -->

<svg
   xmlns:dc="http://purl.org/dc/elements/1.1/"
   xmlns:cc="http://creativecommons.org/ns#"
   xmlns:rdf="http://www.w3.org/1999/02/22-rdf-syntax-ns#"
   xmlns:svg="http://www.w3.org/2000/svg"
   xmlns="http://www.w3.org/2000/svg"
   xmlns:sodipodi="http://sodipodi.sourceforge.net/DTD/sodipodi-0.dtd"
   xmlns:inkscape="http://www.inkscape.org/namespaces/inkscape"
   width="210mm"
   height="297mm"
   viewBox="0 0 210 297"
   version="1.1"
   id="svg8"
   inkscape:version="0.92.2 (5c3e80d, 2017-08-06)"
   sodipodi:docname="171130-MicroHeaterLayout-final.svg">
  <defs
     id="defs2" />
  <sodipodi:namedview
     id="base"
     pagecolor="#ffffff"
     bordercolor="#666666"
     borderopacity="1.0"
     inkscape:pageopacity="0.0"
     inkscape:pageshadow="2"
     inkscape:zoom="0.04375"
     inkscape:cx="7981.6597"
     inkscape:cy="7976.0025"
     inkscape:document-units="mm"
     inkscape:current-layer="layer2"
     showgrid="false"
     inkscape:pagecheckerboard="false"
     showborder="false"
     inkscape:snap-bbox="true"
     inkscape:bbox-paths="true"
     inkscape:bbox-nodes="true"
     inkscape:snap-bbox-edge-midpoints="true"
     inkscape:snap-bbox-midpoints="true"
     inkscape:object-paths="true"
     inkscape:snap-intersection-paths="true"
     inkscape:snap-smooth-nodes="true"
     inkscape:snap-midpoints="true"
     inkscape:snap-others="true"
     inkscape:snap-object-midpoints="true"
     inkscape:snap-center="true"
     inkscape:snap-text-baseline="true"
     inkscape:snap-page="true"
     inkscape:window-width="1920"
     inkscape:window-height="1017"
     inkscape:window-x="1912"
     inkscape:window-y="-8"
     inkscape:window-maximized="1" />
  <metadata
     id="metadata5">
    <rdf:RDF>
      <cc:Work
         rdf:about="">
        <dc:format>image/svg+xml</dc:format>
        <dc:type
           rdf:resource="http://purl.org/dc/dcmitype/StillImage" />
        <dc:title></dc:title>
      </cc:Work>
    </rdf:RDF>
  </metadata>
  <g
     inkscape:label="raw 1"
     inkscape:groupmode="layer"
     id="layer1"
     style="display:none">
    <rect
       style="fill:#ffffff;fill-opacity:1;stroke:#000000;stroke-width:0.50000006;stroke-miterlimit:4;stroke-dasharray:none;stroke-dashoffset:0;stroke-opacity:1"
       id="rect815"
       width="999.5"
       height="999.60004"
       x="0.25000003"
       y="-4202.3506" />
    <rect
       style="fill:#ffffff;fill-opacity:1;stroke:#000000;stroke-width:0.5;stroke-miterlimit:4;stroke-dasharray:none;stroke-dashoffset:0;stroke-opacity:1"
       id="rect817"
       width="860.80774"
       height="499.5"
       x="250.25"
       y="-202.75049" />
    <rect
       style="display:inline;fill:#ffffff;fill-opacity:1;stroke:#000000;stroke-width:0.5;stroke-miterlimit:4;stroke-dasharray:none;stroke-dashoffset:0;stroke-opacity:1"
       id="rect817-8"
       width="499.5"
       height="3278.5295"
       x="250.25"
       y="-3448.1387" />
    <rect
       style="display:inline;fill:#ffffff;fill-opacity:1;stroke:#000000;stroke-width:0.50000006;stroke-miterlimit:4;stroke-dasharray:none;stroke-dashoffset:0;stroke-opacity:1"
       id="rect817-3-5-0"
       width="74.5"
       height="3057.7083"
       x="-1111.0577"
       y="-296.74951"
       transform="scale(-1)" />
    <rect
       style="display:inline;fill:#ffffff;fill-opacity:1;stroke:#000000;stroke-width:0.50000006;stroke-miterlimit:4;stroke-dasharray:none;stroke-dashoffset:0;stroke-opacity:1"
       id="rect817-3-5-0-1"
       width="224.5"
       height="74.499992"
       x="-1261.0577"
       y="2686.4585"
       transform="scale(-1)" />
    <rect
       style="display:inline;fill:#ffffff;fill-opacity:1;stroke:#000000;stroke-width:0.50000006;stroke-miterlimit:4;stroke-dasharray:none;stroke-dashoffset:0;stroke-opacity:1"
       id="rect817-3-5-0-4"
       width="74.5"
       height="3057.7083"
       x="-1261.0577"
       y="-296.74988"
       transform="scale(-1)" />
    <rect
       style="display:inline;fill:#ffffff;fill-opacity:1;stroke:#000000;stroke-width:0.50000006;stroke-miterlimit:4;stroke-dasharray:none;stroke-dashoffset:0;stroke-opacity:1"
       id="rect817-3-5-0-1-3"
       width="224.50002"
       height="74.499992"
       x="-1411.0577"
       y="222.24988"
       transform="scale(-1,1)" />
    <rect
       style="display:inline;fill:#ffffff;fill-opacity:1;stroke:#000000;stroke-width:0.50000006;stroke-miterlimit:4;stroke-dasharray:none;stroke-dashoffset:0;stroke-opacity:1"
       id="rect817-3-5-0-4-7"
       width="74.5"
       height="3057.7083"
       x="-1411.0577"
       y="-2760.9585"
       transform="scale(-1,1)" />
    <rect
       style="display:inline;fill:#ffffff;fill-opacity:1;stroke:#000000;stroke-width:0.50000006;stroke-miterlimit:4;stroke-dasharray:none;stroke-dashoffset:0;stroke-opacity:1"
       id="rect817-3-5-0-1-6"
       width="224.50002"
       height="74.499992"
       x="-1561.0577"
       y="2686.4585"
       transform="scale(-1)" />
    <rect
       style="display:inline;fill:#ffffff;fill-opacity:1;stroke:#000000;stroke-width:0.50000006;stroke-miterlimit:4;stroke-dasharray:none;stroke-dashoffset:0;stroke-opacity:1"
       id="rect817-3-5-0-4-2"
       width="74.5"
       height="3057.7083"
       x="-1561.0577"
       y="-296.74976"
       transform="scale(-1)" />
    <rect
       style="display:inline;fill:#ffffff;fill-opacity:1;stroke:#000000;stroke-width:0.50000006;stroke-miterlimit:4;stroke-dasharray:none;stroke-dashoffset:0;stroke-opacity:1"
       id="rect817-3-5-0-1-3-6"
       width="224.50003"
       height="74.499992"
       x="-1711.0577"
       y="222.25"
       transform="scale(-1,1)" />
    <rect
       style="display:inline;fill:#ffffff;fill-opacity:1;stroke:#000000;stroke-width:0.50000006;stroke-miterlimit:4;stroke-dasharray:none;stroke-dashoffset:0;stroke-opacity:1"
       id="rect817-3-5-0-4-7-8"
       width="74.5"
       height="3057.7083"
       x="-1711.0577"
       y="-2760.9585"
       transform="scale(-1,1)" />
    <rect
       style="display:inline;fill:#ffffff;fill-opacity:1;stroke:#000000;stroke-width:0.50000006;stroke-miterlimit:4;stroke-dasharray:none;stroke-dashoffset:0;stroke-opacity:1"
       id="rect817-3-5-0-1-0"
       width="224.50002"
       height="74.499992"
       x="-1861.0577"
       y="2686.4585"
       transform="scale(-1)" />
    <rect
       style="display:inline;fill:#ffffff;fill-opacity:1;stroke:#000000;stroke-width:0.50000006;stroke-miterlimit:4;stroke-dasharray:none;stroke-dashoffset:0;stroke-opacity:1"
       id="rect817-3-5-0-4-4"
       width="74.5"
       height="3057.7083"
       x="-1861.0577"
       y="-296.74976"
       transform="scale(-1)" />
    <rect
       style="display:inline;fill:#ffffff;fill-opacity:1;stroke:#000000;stroke-width:0.50000006;stroke-miterlimit:4;stroke-dasharray:none;stroke-dashoffset:0;stroke-opacity:1"
       id="rect817-3-5-0-1-3-9"
       width="224.50003"
       height="74.499992"
       x="-2011.0576"
       y="222.25"
       transform="scale(-1,1)" />
    <rect
       style="display:inline;fill:#ffffff;fill-opacity:1;stroke:#000000;stroke-width:0.50000006;stroke-miterlimit:4;stroke-dasharray:none;stroke-dashoffset:0;stroke-opacity:1"
       id="rect817-3-5-0-4-7-7"
       width="74.5"
       height="3057.7083"
       x="-2011.0576"
       y="-2760.9585"
       transform="scale(-1,1)" />
    <rect
       style="display:inline;fill:#ffffff;fill-opacity:1;stroke:#000000;stroke-width:0.50000006;stroke-miterlimit:4;stroke-dasharray:none;stroke-dashoffset:0;stroke-opacity:1"
       id="rect817-3-5-0-1-6-0"
       width="224.50003"
       height="74.499992"
       x="-2161.0576"
       y="2686.4585"
       transform="scale(-1)" />
    <rect
       style="display:inline;fill:#ffffff;fill-opacity:1;stroke:#000000;stroke-width:0.50000006;stroke-miterlimit:4;stroke-dasharray:none;stroke-dashoffset:0;stroke-opacity:1"
       id="rect817-3-5-0-4-2-1"
       width="74.5"
       height="3057.7083"
       x="-2161.0576"
       y="-296.74976"
       transform="scale(-1)" />
    <rect
       style="display:inline;fill:#ffffff;fill-opacity:1;stroke:#000000;stroke-width:0.50000006;stroke-miterlimit:4;stroke-dasharray:none;stroke-dashoffset:0;stroke-opacity:1"
       id="rect817-3-5-0-1-3-6-1"
       width="224.50005"
       height="74.499992"
       x="-2311.0576"
       y="222.25"
       transform="scale(-1,1)" />
    <rect
       style="display:inline;fill:#ffffff;fill-opacity:1;stroke:#000000;stroke-width:0.50000006;stroke-miterlimit:4;stroke-dasharray:none;stroke-dashoffset:0;stroke-opacity:1"
       id="rect817-3-5-0-4-7-8-8"
       width="74.5"
       height="3057.7083"
       x="-2311.0576"
       y="-2760.9585"
       transform="scale(-1,1)" />
    <rect
       style="display:inline;fill:#ffffff;fill-opacity:1;stroke:#000000;stroke-width:0.50000006;stroke-miterlimit:4;stroke-dasharray:none;stroke-dashoffset:0;stroke-opacity:1"
       id="rect817-3-5-0-1-8"
       width="224.50002"
       height="74.499992"
       x="-2461.0576"
       y="2686.4585"
       transform="scale(-1)" />
    <rect
       style="display:inline;fill:#ffffff;fill-opacity:1;stroke:#000000;stroke-width:0.50000006;stroke-miterlimit:4;stroke-dasharray:none;stroke-dashoffset:0;stroke-opacity:1"
       id="rect817-3-5-0-4-0"
       width="74.5"
       height="3057.7083"
       x="-2461.0576"
       y="-296.74976"
       transform="scale(-1)" />
    <rect
       style="display:inline;fill:#ffffff;fill-opacity:1;stroke:#000000;stroke-width:0.50000006;stroke-miterlimit:4;stroke-dasharray:none;stroke-dashoffset:0;stroke-opacity:1"
       id="rect817-3-5-0-1-3-60"
       width="224.50003"
       height="74.499992"
       x="-2611.0576"
       y="222.25"
       transform="scale(-1,1)" />
    <rect
       style="display:inline;fill:#ffffff;fill-opacity:1;stroke:#000000;stroke-width:0.50000006;stroke-miterlimit:4;stroke-dasharray:none;stroke-dashoffset:0;stroke-opacity:1"
       id="rect817-3-5-0-4-7-78"
       width="74.5"
       height="3057.7083"
       x="-2611.0576"
       y="-2760.9585"
       transform="scale(-1,1)" />
    <rect
       style="display:inline;fill:#ffffff;fill-opacity:1;stroke:#000000;stroke-width:0.50000006;stroke-miterlimit:4;stroke-dasharray:none;stroke-dashoffset:0;stroke-opacity:1"
       id="rect817-3-5-0-1-6-2"
       width="224.50003"
       height="74.499992"
       x="-2761.0576"
       y="2686.4585"
       transform="scale(-1)" />
    <rect
       style="display:inline;fill:#ffffff;fill-opacity:1;stroke:#000000;stroke-width:0.50000006;stroke-miterlimit:4;stroke-dasharray:none;stroke-dashoffset:0;stroke-opacity:1"
       id="rect817-3-5-0-4-2-8"
       width="74.5"
       height="3057.7083"
       x="-2761.0576"
       y="-296.74976"
       transform="scale(-1)" />
    <rect
       style="display:inline;fill:#ffffff;fill-opacity:1;stroke:#000000;stroke-width:0.50000006;stroke-miterlimit:4;stroke-dasharray:none;stroke-dashoffset:0;stroke-opacity:1"
       id="rect817-3-5-0-1-3-6-4"
       width="224.50005"
       height="74.499992"
       x="-2911.0576"
       y="222.25"
       transform="scale(-1,1)" />
    <rect
       style="display:inline;fill:#ffffff;fill-opacity:1;stroke:#000000;stroke-width:0.50000006;stroke-miterlimit:4;stroke-dasharray:none;stroke-dashoffset:0;stroke-opacity:1"
       id="rect817-3-5-0-4-7-8-3"
       width="74.5"
       height="3057.7083"
       x="-2911.0576"
       y="-2760.9585"
       transform="scale(-1,1)" />
    <rect
       style="display:inline;fill:#ffffff;fill-opacity:1;stroke:#000000;stroke-width:0.50000006;stroke-miterlimit:4;stroke-dasharray:none;stroke-dashoffset:0;stroke-opacity:1"
       id="rect817-3-5-0-1-0-8"
       width="224.50003"
       height="74.499992"
       x="-3061.0576"
       y="2686.4585"
       transform="scale(-1)" />
    <rect
       style="display:inline;fill:#ffffff;fill-opacity:1;stroke:#000000;stroke-width:0.50000006;stroke-miterlimit:4;stroke-dasharray:none;stroke-dashoffset:0;stroke-opacity:1"
       id="rect817-3-5-0-4-4-6"
       width="74.5"
       height="3057.7083"
       x="-3061.0576"
       y="-296.74976"
       transform="scale(-1)" />
    <rect
       style="display:inline;fill:#ffffff;fill-opacity:1;stroke:#000000;stroke-width:0.50000006;stroke-miterlimit:4;stroke-dasharray:none;stroke-dashoffset:0;stroke-opacity:1"
       id="rect817-3-5-0-1-3-9-4"
       width="224.50005"
       height="74.499992"
       x="-3211.0576"
       y="222.25"
       transform="scale(-1,1)" />
    <rect
       style="display:inline;fill:#ffffff;fill-opacity:1;stroke:#000000;stroke-width:0.50000006;stroke-miterlimit:4;stroke-dasharray:none;stroke-dashoffset:0;stroke-opacity:1"
       id="rect817-3-5-0-4-7-7-7"
       width="74.5"
       height="3057.7083"
       x="-3211.0576"
       y="-2760.9585"
       transform="scale(-1,1)" />
    <rect
       style="display:inline;fill:#ffffff;fill-opacity:1;stroke:#000000;stroke-width:0.50000006;stroke-miterlimit:4;stroke-dasharray:none;stroke-dashoffset:0;stroke-opacity:1"
       id="rect817-3-5-0-1-6-0-2"
       width="224.50005"
       height="74.499992"
       x="-3361.0576"
       y="2686.4585"
       transform="scale(-1)" />
    <rect
       style="display:inline;fill:#ffffff;fill-opacity:1;stroke:#000000;stroke-width:0.50000006;stroke-miterlimit:4;stroke-dasharray:none;stroke-dashoffset:0;stroke-opacity:1"
       id="rect817-3-5-0-4-2-1-0"
       width="74.5"
       height="3057.7083"
       x="-3361.0576"
       y="-296.74976"
       transform="scale(-1)" />
    <rect
       style="display:inline;fill:#ffffff;fill-opacity:1;stroke:#000000;stroke-width:0.50000006;stroke-miterlimit:4;stroke-dasharray:none;stroke-dashoffset:0;stroke-opacity:1"
       id="rect817-3-5-0-1-3-6-1-1"
       width="224.50005"
       height="74.499992"
       x="-3511.0576"
       y="222.25"
       transform="scale(-1,1)" />
    <rect
       style="display:inline;fill:#ffffff;fill-opacity:1;stroke:#000000;stroke-width:0.50000006;stroke-miterlimit:4;stroke-dasharray:none;stroke-dashoffset:0;stroke-opacity:1"
       id="rect817-3-5-0-4-7-8-8-2"
       width="74.5"
       height="3057.7083"
       x="-3511.0576"
       y="-2760.9585"
       transform="scale(-1,1)" />
    <rect
       style="display:inline;fill:#ffffff;fill-opacity:1;stroke:#000000;stroke-width:0.50000006;stroke-miterlimit:4;stroke-dasharray:none;stroke-dashoffset:0;stroke-opacity:1"
       id="rect817-3-5-0-1-9"
       width="224.50002"
       height="74.499992"
       x="-3661.0576"
       y="2686.4585"
       transform="scale(-1)" />
    <rect
       style="display:inline;fill:#ffffff;fill-opacity:1;stroke:#000000;stroke-width:0.50000006;stroke-miterlimit:4;stroke-dasharray:none;stroke-dashoffset:0;stroke-opacity:1"
       id="rect817-3-5-0-4-09"
       width="74.5"
       height="3057.7083"
       x="-3661.0576"
       y="-296.75"
       transform="scale(-1)" />
    <rect
       style="display:inline;fill:#ffffff;fill-opacity:1;stroke:#000000;stroke-width:0.50000006;stroke-miterlimit:4;stroke-dasharray:none;stroke-dashoffset:0;stroke-opacity:1"
       id="rect815-6"
       width="999.50006"
       height="999.60004"
       x="-4697.3652"
       y="-4202.3501"
       transform="scale(-1,1)" />
    <rect
       style="display:inline;fill:#ffffff;fill-opacity:1;stroke:#000000;stroke-width:0.5;stroke-miterlimit:4;stroke-dasharray:none;stroke-dashoffset:0;stroke-opacity:1"
       id="rect817-0"
       width="860.80774"
       height="499.5"
       x="-4447.3652"
       y="-202.75"
       transform="scale(-1,1)" />
    <rect
       style="display:inline;fill:#ffffff;fill-opacity:1;stroke:#000000;stroke-width:0.5;stroke-miterlimit:4;stroke-dasharray:none;stroke-dashoffset:0;stroke-opacity:1"
       id="rect817-8-7"
       width="499.5"
       height="3278.5295"
       x="-4447.3652"
       y="-3448.1382"
       transform="scale(-1,1)" />
  </g>
  <g
     inkscape:groupmode="layer"
     id="layer2"
     inkscape:label="union"
     style="display:inline">
    <path
       style="display:inline;fill:#ffffff;fill-opacity:1;stroke:#000000;stroke-width:5.6692915;stroke-miterlimit:4;stroke-dasharray:none;stroke-dashoffset:0;stroke-opacity:1"
       d="M 0.9453125 -15882.902 L 0.9453125 -12104.887 L 945.82617 -12104.887 L 945.82617 -641.04297 L 945.82617 1121.5703 L 4199.2734 1121.5703 L 4199.2734 -766.30273 L 4199.2734 -10153.545 L 4484.627 -10153.545 L 4484.627 1121.5723 L 4766.2031 1121.5723 L 4766.2031 1121.5703 L 5051.5566 1121.5703 L 5051.5566 1121.5723 L 5333.1309 1121.5723 L 5333.1309 -10153.545 L 5618.4863 -10153.545 L 5618.4863 1121.5703 L 5618.4863 1121.5742 L 6466.9902 1121.5742 L 6466.9902 840 L 6466.9902 -10153.545 L 6752.3438 -10153.545 L 6752.3438 1121.5703 L 6752.3438 1121.5742 L 7600.8477 1121.5742 L 7600.8477 840 L 7600.8477 -10153.545 L 7886.2012 -10153.545 L 7886.2012 1121.5703 L 7886.2012 1121.5742 L 8734.7051 1121.5742 L 8734.7051 840 L 8734.7051 -10153.545 L 9020.0605 -10153.545 L 9020.0605 1121.5703 L 9020.0605 1121.5742 L 9868.5645 1121.5742 L 9868.5645 840 L 9868.5645 -10153.545 L 10153.918 -10153.545 L 10153.918 1121.5703 L 10153.918 1121.5742 L 11002.422 1121.5742 L 11002.422 840 L 11002.422 -10153.545 L 11287.777 -10153.545 L 11287.777 1121.5703 L 11287.777 1121.5742 L 12136.281 1121.5742 L 12136.281 840 L 12136.281 -10153.545 L 12421.635 -10153.545 L 12421.635 1121.5703 L 12421.637 1121.5703 L 12421.637 1121.5742 L 13270.141 1121.5742 L 13270.141 840 L 13270.141 -10153.545 L 13555.494 -10153.545 L 13555.494 -766.30078 L 13555.492 -766.30078 L 13555.492 1121.5723 L 16808.939 1121.5723 L 16808.939 -641.04102 L 16808.939 -766.30078 L 16808.939 -12104.885 L 17753.822 -12104.885 L 17753.822 -15882.9 L 13976.184 -15882.9 L 13976.184 -12104.885 L 14921.066 -12104.885 L 14921.066 -766.30078 L 13837.068 -766.30078 L 13837.068 -10435.119 L 13270.141 -10435.119 L 12988.564 -10435.119 L 12988.564 840 L 12703.209 840 L 12703.209 -10435.121 L 12421.635 -10435.121 L 12421.635 -10435.119 L 11854.705 -10435.119 L 11854.705 -10153.545 L 11854.707 -10153.545 L 11854.707 840 L 11569.352 840 L 11569.352 -10435.121 L 11287.777 -10435.121 L 11287.777 -10435.119 L 11002.422 -10435.119 L 10720.848 -10435.119 L 10720.848 840 L 10435.494 840 L 10435.494 -10435.121 L 10153.918 -10435.121 L 10153.918 -10435.119 L 9586.9883 -10435.119 L 9586.9883 -10153.545 L 9586.9902 -10153.545 L 9586.9902 840 L 9301.6348 840 L 9301.6348 -10435.121 L 9020.0605 -10435.121 L 9020.0605 -10435.119 L 8734.7051 -10435.119 L 8453.1309 -10435.119 L 8453.1309 840 L 8167.7773 840 L 8167.7773 -10435.121 L 7886.2012 -10435.121 L 7886.2012 -10435.119 L 7600.8477 -10435.119 L 7319.2734 -10435.119 L 7319.2734 840 L 7033.9199 840 L 7033.9199 -10435.121 L 6752.3438 -10435.121 L 6752.3438 -10435.119 L 6185.4141 -10435.119 L 6185.4141 -10153.545 L 6185.416 -10153.545 L 6185.416 840 L 5900.0605 840 L 5900.0605 -10435.121 L 5618.4863 -10435.121 L 5618.4863 -10435.119 L 5333.1309 -10435.119 L 5051.5566 -10435.119 L 5051.5566 839.99609 L 4766.2031 839.99609 L 4766.2031 -10435.119 L 4199.2734 -10435.119 L 4199.2734 -10435.121 L 3917.6992 -10435.121 L 3917.6992 -10435.119 L 3917.6992 -10153.545 L 3917.6992 -766.30273 L 2833.7012 -766.30273 L 2833.7012 -12104.887 L 3778.582 -12104.887 L 3778.582 -15882.902 L 0.9453125 -15882.902 z "
       transform="scale(0.26458333)"
       id="rect815-2" />
  </g>
</svg>
