<?xml version="1.0" ?>
<svg baseProfile="full" height="543px" version="1.1" viewBox="-1515.536925 15129.963075 12555.07385 11342.71385" width="600px" xmlns="http://www.w3.org/2000/svg" xmlns:ev="http://www.w3.org/2001/xml-events" xmlns:xlink="http://www.w3.org/1999/xlink">
	<defs/>
	<path d="M -464.925,16079.545 L 9988.925,16079.545 L 9988.925,25523.095 L -464.925,25523.095 L -464.925,16079.545" fill="none" stroke="#000000" stroke-width="10.45385"/>
	<path d="M 2260.25,22803.82 L 3259.75,22803.82 L 3259.75,18804.32 L 2260.25,18804.32 L 2260.25,20554.32 L 759.75,20554.32 L 759.75,17554.32 L 1009.75,17554.32 L 1009.75,16554.72 L 10.25,16554.72 L 10.25,17554.32 L 260.25,17554.32 L 260.25,21053.82 L 2260.25,21053.82 L 2260.25,22803.82" fill="none" stroke="#000000" stroke-width="10.45385"/>
	<path d="M 2560.1,18804.32 L 6259.25,18804.32 L 6259.25,18878.82 L 2560.1,18878.82 L 2560.1,18804.32" fill="none" stroke="#000000" stroke-width="10.45385"/>
	<path d="M 2560.1,18964.32 L 6259.25,18964.32 L 6259.25,19038.82 L 2560.1,19038.82 L 2560.1,18964.32" fill="none" stroke="#000000" stroke-width="10.45385"/>
	<path d="M 2560.1,19124.32 L 6259.25,19124.32 L 6259.25,19198.82 L 2560.1,19198.82 L 2560.1,19124.32" fill="none" stroke="#000000" stroke-width="10.45385"/>
	<path d="M 2560.1,19284.32 L 6259.25,19284.32 L 6259.25,19358.82 L 2560.1,19358.82 L 2560.1,19284.32" fill="none" stroke="#000000" stroke-width="10.45385"/>
	<path d="M 2560.1,19444.32 L 6259.25,19444.32 L 6259.25,19518.82 L 2560.1,19518.82 L 2560.1,19444.32" fill="none" stroke="#000000" stroke-width="10.45385"/>
	<path d="M 2560.1,19604.32 L 6259.25,19604.32 L 6259.25,19678.82 L 2560.1,19678.82 L 2560.1,19604.32" fill="none" stroke="#000000" stroke-width="10.45385"/>
	<path d="M 2560.1,19764.32 L 6259.25,19764.32 L 6259.25,19838.82 L 2560.1,19838.82 L 2560.1,19764.32" fill="none" stroke="#000000" stroke-width="10.45385"/>
	<path d="M 2560.1,19924.32 L 6259.25,19924.32 L 6259.25,19998.82 L 2560.1,19998.82 L 2560.1,19924.32" fill="none" stroke="#000000" stroke-width="10.45385"/>
	<path d="M 2560.1,20084.32 L 6259.25,20084.32 L 6259.25,20158.82 L 2560.1,20158.82 L 2560.1,20084.32" fill="none" stroke="#000000" stroke-width="10.45385"/>
	<path d="M 2560.1,20244.32 L 6259.25,20244.32 L 6259.25,20318.82 L 2560.1,20318.82 L 2560.1,20244.32" fill="none" stroke="#000000" stroke-width="10.45385"/>
	<path d="M 2560.1,20404.32 L 6259.25,20404.32 L 6259.25,20478.82 L 2560.1,20478.82 L 2560.1,20404.32" fill="none" stroke="#000000" stroke-width="10.45385"/>
	<path d="M 2659.85,20564.319 L 6259.25,20564.319 L 6259.25,20638.82 L 2659.85,20638.82 L 2659.85,20564.319" fill="none" stroke="#000000" stroke-width="10.45385"/>
	<path d="M 2659.85,20724.32 L 6259.25,20724.32 L 6259.25,20798.82 L 2659.85,20798.82 L 2659.85,20724.32" fill="none" stroke="#000000" stroke-width="10.45385"/>
	<path d="M 2659.85,20884.319 L 6259.25,20884.319 L 6259.25,20958.819 L 2659.85,20958.819 L 2659.85,20884.319" fill="none" stroke="#000000" stroke-width="10.45385"/>
	<path d="M 2560.1,21044.32 L 6259.25,21044.32 L 6259.25,21118.82 L 2560.1,21118.82 L 2560.1,21044.32" fill="none" stroke="#000000" stroke-width="10.45385"/>
	<path d="M 2560.1,21204.32 L 6259.25,21204.32 L 6259.25,21278.82 L 2560.1,21278.82 L 2560.1,21204.32" fill="none" stroke="#000000" stroke-width="10.45385"/>
	<path d="M 2560.1,21364.32 L 6259.25,21364.32 L 6259.25,21438.82 L 2560.1,21438.82 L 2560.1,21364.32" fill="none" stroke="#000000" stroke-width="10.45385"/>
	<path d="M 2560.1,21524.32 L 6259.25,21524.32 L 6259.25,21598.82 L 2560.1,21598.82 L 2560.1,21524.32" fill="none" stroke="#000000" stroke-width="10.45385"/>
	<path d="M 2560.1,21684.32 L 6259.25,21684.32 L 6259.25,21758.82 L 2560.1,21758.82 L 2560.1,21684.32" fill="none" stroke="#000000" stroke-width="10.45385"/>
	<path d="M 2560.1,21844.319 L 6259.25,21844.319 L 6259.25,21918.82 L 2560.1,21918.82 L 2560.1,21844.319" fill="none" stroke="#000000" stroke-width="10.45385"/>
	<path d="M 2560.1,22004.32 L 6259.25,22004.32 L 6259.25,22078.82 L 2560.1,22078.82 L 2560.1,22004.32" fill="none" stroke="#000000" stroke-width="10.45385"/>
	<path d="M 2560.1,22164.319 L 6259.25,22164.319 L 6259.25,22238.819 L 2560.1,22238.819 L 2560.1,22164.319" fill="none" stroke="#000000" stroke-width="10.45385"/>
	<path d="M 2560.1,22324.32 L 6259.25,22324.32 L 6259.25,22398.82 L 2560.1,22398.82 L 2560.1,22324.32" fill="none" stroke="#000000" stroke-width="10.45385"/>
	<path d="M 2560.1,22484.32 L 6259.25,22484.32 L 6259.25,22558.82 L 2560.1,22558.82 L 2560.1,22484.32" fill="none" stroke="#000000" stroke-width="10.45385"/>
	<path d="M 2560.1,22644.32 L 6259.25,22644.32 L 6259.25,22718.82 L 2560.1,22718.82 L 2560.1,22644.32" fill="none" stroke="#000000" stroke-width="10.45385"/>
	<path d="M 8514.25,25047.92 L 9513.75,25047.92 L 9513.75,24048.32 L 9263.75,24048.32 L 9263.75,20548.82 L 7263.75,20548.82 L 7263.75,18798.82 L 6264.25,18798.82 L 6264.25,22798.32 L 7263.75,22798.32 L 7263.75,21048.32 L 8764.25,21048.32 L 8764.25,24048.32 L 8514.25,24048.32 L 8514.25,25047.92" fill="none" stroke="#000000" stroke-width="10.45385"/>
	<path d="M 3264.75,18883.821 L 6963.9,18883.821 L 6963.9,18958.32 L 3264.75,18958.32 L 3264.75,18883.821" fill="none" stroke="#000000" stroke-width="10.45385"/>
	<path d="M 3264.75,19043.82 L 6963.9,19043.82 L 6963.9,19118.32 L 3264.75,19118.32 L 3264.75,19043.82" fill="none" stroke="#000000" stroke-width="10.45385"/>
	<path d="M 3264.75,19203.82 L 6963.9,19203.82 L 6963.9,19278.32 L 3264.75,19278.32 L 3264.75,19203.82" fill="none" stroke="#000000" stroke-width="10.45385"/>
	<path d="M 3264.75,19363.821 L 6963.9,19363.821 L 6963.9,19438.321 L 3264.75,19438.321 L 3264.75,19363.821" fill="none" stroke="#000000" stroke-width="10.45385"/>
	<path d="M 3264.75,19523.821 L 6963.9,19523.821 L 6963.9,19598.32 L 3264.75,19598.32 L 3264.75,19523.821" fill="none" stroke="#000000" stroke-width="10.45385"/>
	<path d="M 3264.75,19683.821 L 6963.9,19683.821 L 6963.9,19758.321 L 3264.75,19758.321 L 3264.75,19683.821" fill="none" stroke="#000000" stroke-width="10.45385"/>
	<path d="M 3264.75,19843.82 L 6963.9,19843.82 L 6963.9,19918.321 L 3264.75,19918.321 L 3264.75,19843.82" fill="none" stroke="#000000" stroke-width="10.45385"/>
	<path d="M 3264.75,20003.82 L 6963.9,20003.82 L 6963.9,20078.321 L 3264.75,20078.321 L 3264.75,20003.82" fill="none" stroke="#000000" stroke-width="10.45385"/>
	<path d="M 3264.75,20163.82 L 6963.9,20163.82 L 6963.9,20238.32 L 3264.75,20238.32 L 3264.75,20163.82" fill="none" stroke="#000000" stroke-width="10.45385"/>
	<path d="M 3264.75,20323.82 L 6963.9,20323.82 L 6963.9,20398.32 L 3264.75,20398.32 L 3264.75,20323.82" fill="none" stroke="#000000" stroke-width="10.45385"/>
	<path d="M 3264.75,20483.82 L 6963.9,20483.82 L 6963.9,20558.32 L 3264.75,20558.32 L 3264.75,20483.82" fill="none" stroke="#000000" stroke-width="10.45385"/>
	<path d="M 3264.75,20643.821 L 6864.15,20643.821 L 6864.15,20718.321 L 3264.75,20718.321 L 3264.75,20643.821" fill="none" stroke="#000000" stroke-width="10.45385"/>
	<path d="M 3264.75,20803.821 L 6864.15,20803.821 L 6864.15,20878.32 L 3264.75,20878.32 L 3264.75,20803.821" fill="none" stroke="#000000" stroke-width="10.45385"/>
	<path d="M 3264.75,20963.821 L 6864.15,20963.821 L 6864.15,21038.321 L 3264.75,21038.321 L 3264.75,20963.821" fill="none" stroke="#000000" stroke-width="10.45385"/>
	<path d="M 3264.75,21123.82 L 6963.9,21123.82 L 6963.9,21198.32 L 3264.75,21198.32 L 3264.75,21123.82" fill="none" stroke="#000000" stroke-width="10.45385"/>
	<path d="M 3264.75,21283.821 L 6963.9,21283.821 L 6963.9,21358.321 L 3264.75,21358.321 L 3264.75,21283.821" fill="none" stroke="#000000" stroke-width="10.45385"/>
	<path d="M 3264.75,21443.82 L 6963.9,21443.82 L 6963.9,21518.32 L 3264.75,21518.32 L 3264.75,21443.82" fill="none" stroke="#000000" stroke-width="10.45385"/>
	<path d="M 3264.75,21603.82 L 6963.9,21603.82 L 6963.9,21678.321 L 3264.75,21678.321 L 3264.75,21603.82" fill="none" stroke="#000000" stroke-width="10.45385"/>
	<path d="M 3264.75,21763.82 L 6963.9,21763.82 L 6963.9,21838.32 L 3264.75,21838.32 L 3264.75,21763.82" fill="none" stroke="#000000" stroke-width="10.45385"/>
	<path d="M 3264.75,21923.82 L 6963.9,21923.82 L 6963.9,21998.321 L 3264.75,21998.321 L 3264.75,21923.82" fill="none" stroke="#000000" stroke-width="10.45385"/>
	<path d="M 3264.75,22083.82 L 6963.9,22083.82 L 6963.9,22158.32 L 3264.75,22158.32 L 3264.75,22083.82" fill="none" stroke="#000000" stroke-width="10.45385"/>
	<path d="M 3264.75,22243.82 L 6963.9,22243.82 L 6963.9,22318.32 L 3264.75,22318.32 L 3264.75,22243.82" fill="none" stroke="#000000" stroke-width="10.45385"/>
	<path d="M 3264.75,22403.82 L 6963.9,22403.82 L 6963.9,22478.32 L 3264.75,22478.32 L 3264.75,22403.82" fill="none" stroke="#000000" stroke-width="10.45385"/>
	<path d="M 3264.75,22563.821 L 6963.9,22563.821 L 6963.9,22638.32 L 3264.75,22638.32 L 3264.75,22563.821" fill="none" stroke="#000000" stroke-width="10.45385"/>
	<path d="M 3264.75,22723.82 L 6963.9,22723.82 L 6963.9,22798.32 L 3264.75,22798.32 L 3264.75,22723.82" fill="none" stroke="#000000" stroke-width="10.45385"/>
</svg>
