<?xml version="1.0" ?>
<svg baseProfile="full" height="543px" version="1.1" viewBox="-1505.536925 37637.033075 12555.07385 11342.71385" width="600px" xmlns="http://www.w3.org/2000/svg" xmlns:ev="http://www.w3.org/2001/xml-events" xmlns:xlink="http://www.w3.org/1999/xlink">
	<defs/>
	<path d="M -454.925,38586.615 L 9998.925,38586.615 L 9998.925,48030.165 L -454.925,48030.165 L -454.925,38586.615" fill="none" stroke="#000000" stroke-width="10.45385"/>
	<path d="M 2270.25,45310.89 L 3269.75,45310.89 L 3269.75,41311.39 L 2270.25,41311.39 L 2270.25,43061.39 L 769.75,43061.39 L 769.75,40061.39 L 1019.75,40061.39 L 1019.75,39061.79 L 20.25,39061.79 L 20.25,40061.39 L 270.25,40061.39 L 270.25,43560.89 L 2270.25,43560.89 L 2270.25,45310.89" fill="none" stroke="#000000" stroke-width="10.45385"/>
	<path d="M 2570.1,41311.39 L 6269.25,41311.39 L 6269.25,41385.89 L 2570.1,41385.89 L 2570.1,41311.39" fill="none" stroke="#000000" stroke-width="10.45385"/>
	<path d="M 2570.1,41471.39 L 6269.25,41471.39 L 6269.25,41545.89 L 2570.1,41545.89 L 2570.1,41471.39" fill="none" stroke="#000000" stroke-width="10.45385"/>
	<path d="M 2570.1,41631.39 L 6269.25,41631.39 L 6269.25,41705.89 L 2570.1,41705.89 L 2570.1,41631.39" fill="none" stroke="#000000" stroke-width="10.45385"/>
	<path d="M 2570.1,41791.39 L 6269.25,41791.39 L 6269.25,41865.89 L 2570.1,41865.89 L 2570.1,41791.39" fill="none" stroke="#000000" stroke-width="10.45385"/>
	<path d="M 2570.1,41951.39 L 6269.25,41951.39 L 6269.25,42025.89 L 2570.1,42025.89 L 2570.1,41951.39" fill="none" stroke="#000000" stroke-width="10.45385"/>
	<path d="M 2570.1,42111.39 L 6269.25,42111.39 L 6269.25,42185.89 L 2570.1,42185.89 L 2570.1,42111.39" fill="none" stroke="#000000" stroke-width="10.45385"/>
	<path d="M 2570.1,42271.39 L 6269.25,42271.39 L 6269.25,42345.89 L 2570.1,42345.89 L 2570.1,42271.39" fill="none" stroke="#000000" stroke-width="10.45385"/>
	<path d="M 2570.1,42431.39 L 6269.25,42431.39 L 6269.25,42505.89 L 2570.1,42505.89 L 2570.1,42431.39" fill="none" stroke="#000000" stroke-width="10.45385"/>
	<path d="M 2570.1,42591.39 L 6269.25,42591.39 L 6269.25,42665.89 L 2570.1,42665.89 L 2570.1,42591.39" fill="none" stroke="#000000" stroke-width="10.45385"/>
	<path d="M 2570.1,42751.39 L 6269.25,42751.39 L 6269.25,42825.89 L 2570.1,42825.89 L 2570.1,42751.39" fill="none" stroke="#000000" stroke-width="10.45385"/>
	<path d="M 2570.1,42911.39 L 6269.25,42911.39 L 6269.25,42985.89 L 2570.1,42985.89 L 2570.1,42911.39" fill="none" stroke="#000000" stroke-width="10.45385"/>
	<path d="M 2669.85,43071.389 L 6269.25,43071.389 L 6269.25,43145.89 L 2669.85,43145.89 L 2669.85,43071.389" fill="none" stroke="#000000" stroke-width="10.45385"/>
	<path d="M 2669.85,43231.39 L 6269.25,43231.39 L 6269.25,43305.89 L 2669.85,43305.89 L 2669.85,43231.39" fill="none" stroke="#000000" stroke-width="10.45385"/>
	<path d="M 2669.85,43391.389 L 6269.25,43391.389 L 6269.25,43465.889 L 2669.85,43465.889 L 2669.85,43391.389" fill="none" stroke="#000000" stroke-width="10.45385"/>
	<path d="M 2570.1,43551.39 L 6269.25,43551.39 L 6269.25,43625.89 L 2570.1,43625.89 L 2570.1,43551.39" fill="none" stroke="#000000" stroke-width="10.45385"/>
	<path d="M 2570.1,43711.39 L 6269.25,43711.39 L 6269.25,43785.89 L 2570.1,43785.89 L 2570.1,43711.39" fill="none" stroke="#000000" stroke-width="10.45385"/>
	<path d="M 2570.1,43871.39 L 6269.25,43871.39 L 6269.25,43945.89 L 2570.1,43945.89 L 2570.1,43871.39" fill="none" stroke="#000000" stroke-width="10.45385"/>
	<path d="M 2570.1,44031.39 L 6269.25,44031.39 L 6269.25,44105.89 L 2570.1,44105.89 L 2570.1,44031.39" fill="none" stroke="#000000" stroke-width="10.45385"/>
	<path d="M 2570.1,44191.39 L 6269.25,44191.39 L 6269.25,44265.89 L 2570.1,44265.89 L 2570.1,44191.39" fill="none" stroke="#000000" stroke-width="10.45385"/>
	<path d="M 2570.1,44351.389 L 6269.25,44351.389 L 6269.25,44425.89 L 2570.1,44425.89 L 2570.1,44351.389" fill="none" stroke="#000000" stroke-width="10.45385"/>
	<path d="M 2570.1,44511.39 L 6269.25,44511.39 L 6269.25,44585.89 L 2570.1,44585.89 L 2570.1,44511.39" fill="none" stroke="#000000" stroke-width="10.45385"/>
	<path d="M 2570.1,44671.389 L 6269.25,44671.389 L 6269.25,44745.889 L 2570.1,44745.889 L 2570.1,44671.389" fill="none" stroke="#000000" stroke-width="10.45385"/>
	<path d="M 2570.1,44831.39 L 6269.25,44831.39 L 6269.25,44905.89 L 2570.1,44905.89 L 2570.1,44831.39" fill="none" stroke="#000000" stroke-width="10.45385"/>
	<path d="M 2570.1,44991.39 L 6269.25,44991.39 L 6269.25,45065.89 L 2570.1,45065.89 L 2570.1,44991.39" fill="none" stroke="#000000" stroke-width="10.45385"/>
	<path d="M 2570.1,45151.39 L 6269.25,45151.39 L 6269.25,45225.89 L 2570.1,45225.89 L 2570.1,45151.39" fill="none" stroke="#000000" stroke-width="10.45385"/>
	<path d="M 8524.25,47554.99 L 9523.75,47554.99 L 9523.75,46555.39 L 9273.75,46555.39 L 9273.75,43055.89 L 7273.75,43055.89 L 7273.75,41305.89 L 6274.25,41305.89 L 6274.25,45305.39 L 7273.75,45305.39 L 7273.75,43555.39 L 8774.25,43555.39 L 8774.25,46555.39 L 8524.25,46555.39 L 8524.25,47554.99" fill="none" stroke="#000000" stroke-width="10.45385"/>
	<path d="M 3274.75,41390.891 L 6973.9,41390.891 L 6973.9,41465.39 L 3274.75,41465.39 L 3274.75,41390.891" fill="none" stroke="#000000" stroke-width="10.45385"/>
	<path d="M 3274.75,41550.89 L 6973.9,41550.89 L 6973.9,41625.39 L 3274.75,41625.39 L 3274.75,41550.89" fill="none" stroke="#000000" stroke-width="10.45385"/>
	<path d="M 3274.75,41710.89 L 6973.9,41710.89 L 6973.9,41785.39 L 3274.75,41785.39 L 3274.75,41710.89" fill="none" stroke="#000000" stroke-width="10.45385"/>
	<path d="M 3274.75,41870.891 L 6973.9,41870.891 L 6973.9,41945.391 L 3274.75,41945.391 L 3274.75,41870.891" fill="none" stroke="#000000" stroke-width="10.45385"/>
	<path d="M 3274.75,42030.891 L 6973.9,42030.891 L 6973.9,42105.39 L 3274.75,42105.39 L 3274.75,42030.891" fill="none" stroke="#000000" stroke-width="10.45385"/>
	<path d="M 3274.75,42190.891 L 6973.9,42190.891 L 6973.9,42265.391 L 3274.75,42265.391 L 3274.75,42190.891" fill="none" stroke="#000000" stroke-width="10.45385"/>
	<path d="M 3274.75,42350.89 L 6973.9,42350.89 L 6973.9,42425.391 L 3274.75,42425.391 L 3274.75,42350.89" fill="none" stroke="#000000" stroke-width="10.45385"/>
	<path d="M 3274.75,42510.89 L 6973.9,42510.89 L 6973.9,42585.391 L 3274.75,42585.391 L 3274.75,42510.89" fill="none" stroke="#000000" stroke-width="10.45385"/>
	<path d="M 3274.75,42670.89 L 6973.9,42670.89 L 6973.9,42745.39 L 3274.75,42745.39 L 3274.75,42670.89" fill="none" stroke="#000000" stroke-width="10.45385"/>
	<path d="M 3274.75,42830.89 L 6973.9,42830.89 L 6973.9,42905.39 L 3274.75,42905.39 L 3274.75,42830.89" fill="none" stroke="#000000" stroke-width="10.45385"/>
	<path d="M 3274.75,42990.89 L 6973.9,42990.89 L 6973.9,43065.39 L 3274.75,43065.39 L 3274.75,42990.89" fill="none" stroke="#000000" stroke-width="10.45385"/>
	<path d="M 3274.75,43150.891 L 6874.15,43150.891 L 6874.15,43225.391 L 3274.75,43225.391 L 3274.75,43150.891" fill="none" stroke="#000000" stroke-width="10.45385"/>
	<path d="M 3274.75,43310.891 L 6874.15,43310.891 L 6874.15,43385.39 L 3274.75,43385.39 L 3274.75,43310.891" fill="none" stroke="#000000" stroke-width="10.45385"/>
	<path d="M 3274.75,43470.891 L 6874.15,43470.891 L 6874.15,43545.391 L 3274.75,43545.391 L 3274.75,43470.891" fill="none" stroke="#000000" stroke-width="10.45385"/>
	<path d="M 3274.75,43630.89 L 6973.9,43630.89 L 6973.9,43705.39 L 3274.75,43705.39 L 3274.75,43630.89" fill="none" stroke="#000000" stroke-width="10.45385"/>
	<path d="M 3274.75,43790.891 L 6973.9,43790.891 L 6973.9,43865.391 L 3274.75,43865.391 L 3274.75,43790.891" fill="none" stroke="#000000" stroke-width="10.45385"/>
	<path d="M 3274.75,43950.89 L 6973.9,43950.89 L 6973.9,44025.39 L 3274.75,44025.39 L 3274.75,43950.89" fill="none" stroke="#000000" stroke-width="10.45385"/>
	<path d="M 3274.75,44110.89 L 6973.9,44110.89 L 6973.9,44185.391 L 3274.75,44185.391 L 3274.75,44110.89" fill="none" stroke="#000000" stroke-width="10.45385"/>
	<path d="M 3274.75,44270.89 L 6973.9,44270.89 L 6973.9,44345.39 L 3274.75,44345.39 L 3274.75,44270.89" fill="none" stroke="#000000" stroke-width="10.45385"/>
	<path d="M 3274.75,44430.89 L 6973.9,44430.89 L 6973.9,44505.391 L 3274.75,44505.391 L 3274.75,44430.89" fill="none" stroke="#000000" stroke-width="10.45385"/>
	<path d="M 3274.75,44590.89 L 6973.9,44590.89 L 6973.9,44665.39 L 3274.75,44665.39 L 3274.75,44590.89" fill="none" stroke="#000000" stroke-width="10.45385"/>
	<path d="M 3274.75,44750.89 L 6973.9,44750.89 L 6973.9,44825.39 L 3274.75,44825.39 L 3274.75,44750.89" fill="none" stroke="#000000" stroke-width="10.45385"/>
	<path d="M 3274.75,44910.89 L 6973.9,44910.89 L 6973.9,44985.39 L 3274.75,44985.39 L 3274.75,44910.89" fill="none" stroke="#000000" stroke-width="10.45385"/>
	<path d="M 3274.75,45070.891 L 6973.9,45070.891 L 6973.9,45145.39 L 3274.75,45145.39 L 3274.75,45070.891" fill="none" stroke="#000000" stroke-width="10.45385"/>
	<path d="M 3274.75,45230.89 L 6973.9,45230.89 L 6973.9,45305.39 L 3274.75,45305.39 L 3274.75,45230.89" fill="none" stroke="#000000" stroke-width="10.45385"/>
</svg>
