<?xml version="1.0" ?>
<svg baseProfile="full" height="169px" version="1.1" viewBox="6.95902245 846.40352245 25.0229551 7.0289551" width="600px" xmlns="http://www.w3.org/2000/svg" xmlns:ev="http://www.w3.org/2001/xml-events" xmlns:xlink="http://www.w3.org/1999/xlink">
	<defs/>
	<path d="M 9.05295,846.99795 L 29.88805,846.99795 L 29.88805,852.83805 L 9.05295,852.83805 L 9.05295,846.99795" fill="none" stroke="#000000" stroke-width="0.0208351"/>
	<path d="M 15.781,851.891 L 17.164,851.891 L 17.164,847.945 L 15.781,847.945 L 15.781,849.238 L 12.891,849.238 L 12.891,848.473 L 10.0,848.473 L 10.0,851.363 L 12.891,851.363 L 12.891,850.598 L 15.781,850.598 L 15.781,851.891" fill="none" stroke="#000000" stroke-width="0.0208351"/>
	<path d="M 16.1959,848.004 L 21.766,848.004 L 21.766,848.227 L 16.1959,848.227 L 16.1959,848.004" fill="none" stroke="#000000" stroke-width="0.0208351"/>
	<path d="M 16.1959,848.391 L 21.766,848.391 L 21.766,848.613 L 16.1959,848.613 L 16.1959,848.391" fill="none" stroke="#000000" stroke-width="0.0208351"/>
	<path d="M 16.1959,848.773 L 21.766,848.773 L 21.766,849.0 L 16.1959,849.0 L 16.1959,848.773" fill="none" stroke="#000000" stroke-width="0.0208351"/>
	<path d="M 16.1959,849.16 L 21.766,849.16 L 21.766,849.383 L 16.1959,849.383 L 16.1959,849.16" fill="none" stroke="#000000" stroke-width="0.0208351"/>
	<path d="M 15.7312,849.547 L 21.766,849.547 L 21.766,849.77 L 15.7312,849.77 L 15.7312,849.547" fill="none" stroke="#000000" stroke-width="0.0208351"/>
	<path d="M 15.7312,849.93 L 21.766,849.93 L 21.766,850.156 L 15.7312,850.156 L 15.7312,849.93" fill="none" stroke="#000000" stroke-width="0.0208351"/>
	<path d="M 15.7312,850.316 L 21.766,850.316 L 21.766,850.539 L 15.7312,850.539 L 15.7312,850.316" fill="none" stroke="#000000" stroke-width="0.0208351"/>
	<path d="M 16.1959,850.703 L 21.766,850.703 L 21.766,850.926 L 16.1959,850.926 L 16.1959,850.703" fill="none" stroke="#000000" stroke-width="0.0208351"/>
	<path d="M 16.1959,851.086 L 21.766,851.086 L 21.766,851.313 L 16.1959,851.313 L 16.1959,851.086" fill="none" stroke="#000000" stroke-width="0.0208351"/>
	<path d="M 16.1959,851.473 L 21.766,851.473 L 21.766,851.695 L 16.1959,851.695 L 16.1959,851.473" fill="none" stroke="#000000" stroke-width="0.0208351"/>
	<path d="M 21.777,851.891 L 23.16,851.891 L 23.16,850.598 L 26.051,850.598 L 26.051,851.363 L 28.941,851.363 L 28.941,848.473 L 26.051,848.473 L 26.051,849.238 L 23.16,849.238 L 23.16,847.945 L 21.777,847.945 L 21.777,851.891" fill="none" stroke="#000000" stroke-width="0.0208351"/>
	<path d="M 17.176,848.195 L 22.7451,848.195 L 22.7451,848.422 L 17.176,848.422 L 17.176,848.195" fill="none" stroke="#000000" stroke-width="0.0208351"/>
	<path d="M 17.176,848.582 L 22.7451,848.582 L 22.7451,848.805 L 17.176,848.805 L 17.176,848.582" fill="none" stroke="#000000" stroke-width="0.0208351"/>
	<path d="M 17.176,848.969 L 22.7451,848.969 L 22.7451,849.191 L 17.176,849.191 L 17.176,848.969" fill="none" stroke="#000000" stroke-width="0.0208351"/>
	<path d="M 17.176,849.352 L 23.2098,849.352 L 23.2098,849.578 L 17.176,849.578 L 17.176,849.352" fill="none" stroke="#000000" stroke-width="0.0208351"/>
	<path d="M 17.176,849.738 L 23.2098,849.738 L 23.2098,849.961 L 17.176,849.961 L 17.176,849.738" fill="none" stroke="#000000" stroke-width="0.0208351"/>
	<path d="M 17.176,850.125 L 23.2098,850.125 L 23.2098,850.348 L 17.176,850.348 L 17.176,850.125" fill="none" stroke="#000000" stroke-width="0.0208351"/>
	<path d="M 17.176,850.508 L 22.7451,850.508 L 22.7451,850.734 L 17.176,850.734 L 17.176,850.508" fill="none" stroke="#000000" stroke-width="0.0208351"/>
	<path d="M 17.176,850.895 L 22.7451,850.895 L 22.7451,851.117 L 17.176,851.117 L 17.176,850.895" fill="none" stroke="#000000" stroke-width="0.0208351"/>
	<path d="M 17.176,851.281 L 22.7451,851.281 L 22.7451,851.504 L 17.176,851.504 L 17.176,851.281" fill="none" stroke="#000000" stroke-width="0.0208351"/>
	<path d="M 17.176,851.664 L 22.7451,851.664 L 22.7451,851.891 L 17.176,851.891 L 17.176,851.664" fill="none" stroke="#000000" stroke-width="0.0208351"/>
</svg>
