<?xml version="1.0" ?>
<svg baseProfile="full" height="186px" version="1.1" viewBox="16.9193666 18.3776666 25.3492668 7.8496668" width="600px" xmlns="http://www.w3.org/2000/svg" xmlns:ev="http://www.w3.org/2001/xml-events" xmlns:xlink="http://www.w3.org/1999/xlink">
	<defs/>
	<path d="M 19.0406,19.0406 L 40.1474,19.0406 L 40.1474,25.5644 L 19.0406,25.5644 L 19.0406,19.0406" fill="none" stroke="#000000" stroke-width="0.0211068"/>
	<path d="M 31.883,24.605 L 33.383,24.605 L 33.383,23.027 L 36.281,23.027 L 36.281,23.754 L 39.188,23.754 L 39.188,20.852 L 36.281,20.852 L 36.281,21.578 L 33.383,21.578 L 33.383,20.0 L 31.883,20.0 L 31.883,24.605" fill="none" stroke="#000000" stroke-width="0.0211068"/>
	<path d="M 27.324,20.273 L 32.933,20.273 L 32.933,20.523 L 27.324,20.523 L 27.324,20.273" fill="none" stroke="#000000" stroke-width="0.0211068"/>
	<path d="M 27.324,20.727 L 32.933,20.727 L 32.933,20.977 L 27.324,20.977 L 27.324,20.727" fill="none" stroke="#000000" stroke-width="0.0211068"/>
	<path d="M 27.324,21.184 L 32.933,21.184 L 32.933,21.43 L 27.324,21.43 L 27.324,21.184" fill="none" stroke="#000000" stroke-width="0.0211068"/>
	<path d="M 27.324,21.633 L 33.344,21.633 L 33.344,21.883 L 27.324,21.883 L 27.324,21.633" fill="none" stroke="#000000" stroke-width="0.0211068"/>
	<path d="M 27.324,22.09 L 33.344,22.09 L 33.344,22.336 L 27.324,22.336 L 27.324,22.09" fill="none" stroke="#000000" stroke-width="0.0211068"/>
	<path d="M 27.324,22.543 L 33.344,22.543 L 33.344,22.793 L 27.324,22.793 L 27.324,22.543" fill="none" stroke="#000000" stroke-width="0.0211068"/>
	<path d="M 27.324,22.996 L 32.933,22.996 L 32.933,23.246 L 27.324,23.246 L 27.324,22.996" fill="none" stroke="#000000" stroke-width="0.0211068"/>
	<path d="M 27.324,23.449 L 32.933,23.449 L 32.933,23.699 L 27.324,23.699 L 27.324,23.449" fill="none" stroke="#000000" stroke-width="0.0211068"/>
	<path d="M 27.324,23.902 L 32.933,23.902 L 32.933,24.152 L 27.324,24.152 L 27.324,23.902" fill="none" stroke="#000000" stroke-width="0.0211068"/>
	<path d="M 27.324,24.355 L 32.933,24.355 L 32.933,24.605 L 27.324,24.605 L 27.324,24.355" fill="none" stroke="#000000" stroke-width="0.0211068"/>
	<path d="M 25.805,24.605 L 27.305,24.605 L 27.305,20.0 L 25.805,20.0 L 25.805,21.578 L 22.906,21.578 L 22.906,20.852 L 20.0,20.852 L 20.0,23.754 L 22.906,23.754 L 22.906,23.027 L 25.805,23.027 L 25.805,24.605" fill="none" stroke="#000000" stroke-width="0.0211068"/>
	<path d="M 26.255,20.047 L 31.863,20.047 L 31.863,20.297 L 26.255,20.297 L 26.255,20.047" fill="none" stroke="#000000" stroke-width="0.0211068"/>
	<path d="M 26.255,20.5 L 31.863,20.5 L 31.863,20.75 L 26.255,20.75 L 26.255,20.5" fill="none" stroke="#000000" stroke-width="0.0211068"/>
	<path d="M 26.255,20.953 L 31.863,20.953 L 31.863,21.203 L 26.255,21.203 L 26.255,20.953" fill="none" stroke="#000000" stroke-width="0.0211068"/>
	<path d="M 26.255,21.406 L 31.863,21.406 L 31.863,21.656 L 26.255,21.656 L 26.255,21.406" fill="none" stroke="#000000" stroke-width="0.0211068"/>
	<path d="M 25.844,21.863 L 31.863,21.863 L 31.863,22.109 L 25.844,22.109 L 25.844,21.863" fill="none" stroke="#000000" stroke-width="0.0211068"/>
	<path d="M 25.844,22.316 L 31.863,22.316 L 31.863,22.566 L 25.844,22.566 L 25.844,22.316" fill="none" stroke="#000000" stroke-width="0.0211068"/>
	<path d="M 25.844,22.77 L 31.863,22.77 L 31.863,23.016 L 25.844,23.016 L 25.844,22.77" fill="none" stroke="#000000" stroke-width="0.0211068"/>
	<path d="M 26.255,23.223 L 31.863,23.223 L 31.863,23.473 L 26.255,23.473 L 26.255,23.223" fill="none" stroke="#000000" stroke-width="0.0211068"/>
	<path d="M 26.255,23.676 L 31.863,23.676 L 31.863,23.926 L 26.255,23.926 L 26.255,23.676" fill="none" stroke="#000000" stroke-width="0.0211068"/>
	<path d="M 26.255,24.129 L 31.863,24.129 L 31.863,24.379 L 26.255,24.379 L 26.255,24.129" fill="none" stroke="#000000" stroke-width="0.0211068"/>
</svg>
