<?xml version="1.0" ?>
<svg baseProfile="full" height="600px" version="1.1" viewBox="3.0915295 3.0915295 82.557941 82.557941" width="600px" xmlns="http://www.w3.org/2000/svg" xmlns:ev="http://www.w3.org/2001/xml-events" xmlns:xlink="http://www.w3.org/1999/xlink">
	<defs/>
	<path d="M 10.0,10.0 L 10.0,78.741 L 78.741,78.741 L 78.741,10.0 L 10.0,10.0" fill="none" stroke="#000000" stroke-width="0.068741"/>
	<path d="M 34.52,46.553 L 46.567,46.553 L 46.567,46.638 L 34.52,46.638 L 34.52,46.553" fill="none" stroke="#000000" stroke-width="0.068741"/>
	<path d="M 31.402,46.27 L 46.567,46.27 L 46.567,46.355 L 31.402,46.355 L 31.402,46.27" fill="none" stroke="#000000" stroke-width="0.068741"/>
	<path d="M 37.638,45.986 L 46.567,45.986 L 46.567,46.071 L 37.638,46.071 L 37.638,45.986" fill="none" stroke="#000000" stroke-width="0.068741"/>
	<path d="M 40.756,45.703 L 46.567,45.703 L 46.567,45.788 L 40.756,45.788 L 40.756,45.703" fill="none" stroke="#000000" stroke-width="0.068741"/>
	<path d="M 10.0,57.878 L 35.37,57.878 L 35.37,59.663 L 10.0,59.663 L 10.0,57.878" fill="none" stroke="#000000" stroke-width="0.068741"/>
	<path d="M 34.52,46.511 L 35.37,46.511 L 35.37,59.1275 L 34.52,59.1275 L 34.52,46.511" fill="none" stroke="#000000" stroke-width="0.068741"/>
	<path d="M 10.0,50.678 L 32.252,50.678 L 32.252,52.463 L 10.0,52.463 L 10.0,50.678" fill="none" stroke="#000000" stroke-width="0.068741"/>
	<path d="M 31.402,46.227 L 32.252,46.227 L 32.252,51.9275 L 31.402,51.9275 L 31.402,46.227" fill="none" stroke="#000000" stroke-width="0.068741"/>
	<path d="M 10.0,25.477 L 38.488,25.477 L 38.488,27.263 L 10.0,27.263 L 10.0,25.477" fill="none" stroke="#000000" stroke-width="0.068741"/>
	<path d="M 37.638,26.0128 L 38.488,26.0128 L 38.488,46.114 L 37.638,46.114 L 37.638,26.0128" fill="none" stroke="#000000" stroke-width="0.068741"/>
	<path d="M 10.0,18.277 L 41.607,18.277 L 41.607,20.063 L 10.0,20.063 L 10.0,18.277" fill="none" stroke="#000000" stroke-width="0.068741"/>
	<path d="M 40.756,18.8128 L 41.607,18.8128 L 41.607,45.83 L 40.756,45.83 L 40.756,18.8128" fill="none" stroke="#000000" stroke-width="0.068741"/>
</svg>
